<svg width="25" height="25" viewBox="0 0 25 25" fill="none" xmlns="http://www.w3.org/2000/svg">
<g clip-path="url(#clip0_13626_1906)">
<path d="M12.5 25C19.4036 25 25 19.4036 25 12.5C25 5.59644 19.4036 0 12.5 0C5.59644 0 0 5.59644 0 12.5C0 19.4036 5.59644 25 12.5 25Z" fill="#6DA544"/>
<path d="M12.4979 4.89136L22.824 12.5L12.4979 20.1087L2.17188 12.5L12.4979 4.89136Z" fill="#FFDA44"/>
<path d="M12.4962 16.8477C14.8975 16.8477 16.844 14.9011 16.844 12.4999C16.844 10.0987 14.8975 8.1521 12.4962 8.1521C10.095 8.1521 8.14844 10.0987 8.14844 12.4999C8.14844 14.9011 10.095 16.8477 12.4962 16.8477Z" fill="#F0F0F0"/>
<path d="M10.3288 12.2283C9.5727 12.2283 8.84307 12.3433 8.15625 12.5566C8.18667 14.9316 10.1205 16.8479 12.5027 16.8479C13.9757 16.8479 15.2767 16.1146 16.0632 14.9939C14.7176 13.3095 12.6473 12.2283 10.3288 12.2283Z" fill="#0052B4"/>
<path d="M16.7704 13.3329C16.8228 13.0632 16.851 12.7849 16.851 12.4999C16.851 10.0986 14.9044 8.1521 12.5032 8.1521C10.7115 8.1521 9.17344 9.23613 8.50781 10.7839C9.09619 10.662 9.70537 10.5978 10.3293 10.5978C12.8546 10.5977 15.1391 11.6474 16.7704 13.3329Z" fill="#0052B4"/>
</g>
<defs>
<clipPath id="clip0_13626_1906">
<rect width="25" height="25" fill="white"/>
</clipPath>
</defs>
</svg>
