<svg width="26" height="29" viewBox="0 0 26 29" fill="none" xmlns="http://www.w3.org/2000/svg">
<path d="M18.9833 16.6202C18.3853 16.6203 17.9004 16.1356 17.9003 15.5376C17.9002 14.9396 18.3849 14.4548 18.9829 14.4547C19.5809 14.4546 20.0657 14.9392 20.0659 15.5372C20.0652 16.1349 19.581 16.6193 18.9833 16.6202ZM7.0167 16.6202C6.4187 16.6203 5.93389 16.1356 5.93374 15.5376C5.93364 14.9396 6.41829 14.4548 7.01629 14.4547C7.61429 14.4546 8.0991 14.9392 8.09925 15.5372C8.09864 16.1349 7.61439 16.6194 7.0167 16.6202ZM19.3716 10.0986L21.5352 6.35118C21.6597 6.13592 21.586 5.86054 21.3708 5.73607C21.1555 5.61161 20.8801 5.68524 20.7557 5.9005L18.5647 9.69528C16.8892 8.93062 15.0076 8.50482 12.9998 8.50482C10.992 8.50482 9.11056 8.93123 7.43514 9.69528L5.24433 5.9005C5.12007 5.68519 4.84473 5.61135 4.62942 5.73566C4.41411 5.85993 4.34027 6.13526 4.46459 6.35057L6.62843 10.0986C2.91302 12.1195 0.371719 15.8808 0 20.3248H26C25.6279 15.8808 23.0868 12.1195 19.3716 10.0986Z" fill="currentColor"/>
<path d="M2.704 24.1147C3.144 24.1147 3.48 24.2227 3.712 24.4387C3.948 24.6547 4.066 24.9767 4.066 25.4047V27.3247H3.52V26.9047C3.424 27.0527 3.286 27.1667 3.106 27.2467C2.93 27.3227 2.72 27.3607 2.476 27.3607C2.12 27.3607 1.834 27.2747 1.618 27.1027C1.406 26.9307 1.3 26.7047 1.3 26.4247C1.3 26.1447 1.402 25.9207 1.606 25.7527C1.81 25.5807 2.134 25.4947 2.578 25.4947H3.49V25.3807C3.49 25.1327 3.418 24.9427 3.274 24.8107C3.13 24.6787 2.918 24.6127 2.638 24.6127C2.45 24.6127 2.266 24.6447 2.086 24.7087C1.906 24.7687 1.754 24.8507 1.63 24.9547L1.39 24.5227C1.554 24.3907 1.75 24.2907 1.978 24.2227C2.206 24.1507 2.448 24.1147 2.704 24.1147ZM2.572 26.9167C2.792 26.9167 2.982 26.8687 3.142 26.7727C3.302 26.6727 3.418 26.5327 3.49 26.3527V25.9087H2.602C2.114 25.9087 1.87 26.0727 1.87 26.4007C1.87 26.5607 1.932 26.6867 2.056 26.7787C2.18 26.8707 2.352 26.9167 2.572 26.9167ZM6.82994 24.1147C7.23394 24.1147 7.55394 24.2327 7.78994 24.4687C8.02994 24.7007 8.14994 25.0427 8.14994 25.4947V27.3247H7.57394V25.5607C7.57394 25.2527 7.49994 25.0207 7.35194 24.8647C7.20394 24.7087 6.99194 24.6307 6.71594 24.6307C6.40394 24.6307 6.15794 24.7227 5.97794 24.9067C5.79794 25.0867 5.70794 25.3467 5.70794 25.6867V27.3247H5.13194V24.1447H5.68394V24.6247C5.79994 24.4607 5.95594 24.3347 6.15194 24.2467C6.35194 24.1587 6.57794 24.1147 6.82994 24.1147ZM12.2335 22.8727V27.3247H11.6815V26.8207C11.5535 26.9967 11.3915 27.1307 11.1955 27.2227C10.9995 27.3147 10.7835 27.3607 10.5475 27.3607C10.2395 27.3607 9.9635 27.2927 9.7195 27.1567C9.4755 27.0207 9.2835 26.8307 9.1435 26.5867C9.0075 26.3387 8.9395 26.0547 8.9395 25.7347C8.9395 25.4147 9.0075 25.1327 9.1435 24.8887C9.2835 24.6447 9.4755 24.4547 9.7195 24.3187C9.9635 24.1827 10.2395 24.1147 10.5475 24.1147C10.7755 24.1147 10.9855 24.1587 11.1775 24.2467C11.3695 24.3307 11.5295 24.4567 11.6575 24.6247V22.8727H12.2335ZM10.5955 26.8567C10.7955 26.8567 10.9775 26.8107 11.1415 26.7187C11.3055 26.6227 11.4335 26.4907 11.5255 26.3227C11.6175 26.1507 11.6635 25.9547 11.6635 25.7347C11.6635 25.5147 11.6175 25.3207 11.5255 25.1527C11.4335 24.9807 11.3055 24.8487 11.1415 24.7567C10.9775 24.6647 10.7955 24.6187 10.5955 24.6187C10.3915 24.6187 10.2075 24.6647 10.0435 24.7567C9.8835 24.8487 9.7555 24.9807 9.6595 25.1527C9.5675 25.3207 9.5215 25.5147 9.5215 25.7347C9.5215 25.9547 9.5675 26.1507 9.6595 26.3227C9.7555 26.4907 9.8835 26.6227 10.0435 26.7187C10.2075 26.8107 10.3915 26.8567 10.5955 26.8567ZM13.8753 24.6787C13.9753 24.4947 14.1233 24.3547 14.3193 24.2587C14.5153 24.1627 14.7533 24.1147 15.0333 24.1147V24.6727C15.0013 24.6687 14.9573 24.6667 14.9013 24.6667C14.5893 24.6667 14.3433 24.7607 14.1633 24.9487C13.9873 25.1327 13.8993 25.3967 13.8993 25.7407V27.3247H13.3233V24.1447H13.8753V24.6787ZM17.076 27.3607C16.76 27.3607 16.476 27.2907 16.224 27.1507C15.972 27.0107 15.774 26.8187 15.63 26.5747C15.49 26.3267 15.42 26.0467 15.42 25.7347C15.42 25.4227 15.49 25.1447 15.63 24.9007C15.774 24.6527 15.972 24.4607 16.224 24.3247C16.476 24.1847 16.76 24.1147 17.076 24.1147C17.392 24.1147 17.674 24.1847 17.922 24.3247C18.174 24.4607 18.37 24.6527 18.51 24.9007C18.654 25.1447 18.726 25.4227 18.726 25.7347C18.726 26.0467 18.654 26.3267 18.51 26.5747C18.37 26.8187 18.174 27.0107 17.922 27.1507C17.674 27.2907 17.392 27.3607 17.076 27.3607ZM17.076 26.8567C17.28 26.8567 17.462 26.8107 17.622 26.7187C17.786 26.6227 17.914 26.4907 18.006 26.3227C18.098 26.1507 18.144 25.9547 18.144 25.7347C18.144 25.5147 18.098 25.3207 18.006 25.1527C17.914 24.9807 17.786 24.8487 17.622 24.7567C17.462 24.6647 17.28 24.6187 17.076 24.6187C16.872 24.6187 16.688 24.6647 16.524 24.7567C16.364 24.8487 16.236 24.9807 16.14 25.1527C16.048 25.3207 16.002 25.5147 16.002 25.7347C16.002 25.9547 16.048 26.1507 16.14 26.3227C16.236 26.4907 16.364 26.6227 16.524 26.7187C16.688 26.8107 16.872 26.8567 17.076 26.8567ZM19.5226 24.1447H20.0986V27.3247H19.5226V24.1447ZM19.8106 23.5327C19.6986 23.5327 19.6046 23.4967 19.5286 23.4247C19.4566 23.3527 19.4206 23.2647 19.4206 23.1607C19.4206 23.0567 19.4566 22.9687 19.5286 22.8967C19.6046 22.8207 19.6986 22.7827 19.8106 22.7827C19.9226 22.7827 20.0146 22.8187 20.0866 22.8907C20.1626 22.9587 20.2006 23.0447 20.2006 23.1487C20.2006 23.2567 20.1626 23.3487 20.0866 23.4247C20.0146 23.4967 19.9226 23.5327 19.8106 23.5327ZM24.1983 22.8727V27.3247H23.6463V26.8207C23.5183 26.9967 23.3563 27.1307 23.1603 27.2227C22.9643 27.3147 22.7483 27.3607 22.5123 27.3607C22.2043 27.3607 21.9283 27.2927 21.6843 27.1567C21.4403 27.0207 21.2483 26.8307 21.1083 26.5867C20.9723 26.3387 20.9043 26.0547 20.9043 25.7347C20.9043 25.4147 20.9723 25.1327 21.1083 24.8887C21.2483 24.6447 21.4403 24.4547 21.6843 24.3187C21.9283 24.1827 22.2043 24.1147 22.5123 24.1147C22.7403 24.1147 22.9503 24.1587 23.1423 24.2467C23.3343 24.3307 23.4943 24.4567 23.6223 24.6247V22.8727H24.1983ZM22.5603 26.8567C22.7603 26.8567 22.9423 26.8107 23.1063 26.7187C23.2703 26.6227 23.3983 26.4907 23.4903 26.3227C23.5823 26.1507 23.6283 25.9547 23.6283 25.7347C23.6283 25.5147 23.5823 25.3207 23.4903 25.1527C23.3983 24.9807 23.2703 24.8487 23.1063 24.7567C22.9423 24.6647 22.7603 24.6187 22.5603 24.6187C22.3563 24.6187 22.1723 24.6647 22.0083 24.7567C21.8483 24.8487 21.7203 24.9807 21.6243 25.1527C21.5323 25.3207 21.4863 25.5147 21.4863 25.7347C21.4863 25.9547 21.5323 26.1507 21.6243 26.3227C21.7203 26.4907 21.8483 26.6227 22.0083 26.7187C22.1723 26.8107 22.3563 26.8567 22.5603 26.8567Z" fill="currentColor"/>
</svg>
