<svg width="30" height="30" viewBox="0 0 30 30" fill="none" xmlns="http://www.w3.org/2000/svg">
<path d="M27.5598 2.85429C27.5598 1.78188 26.6811 0.907227 25.6011 0.907227H12.8083C11.7284 0.907227 10.8497 1.78188 10.8497 2.85429V3.12505L3.58431 5.63725C2.56601 5.98952 2.02048 7.10446 2.37275 8.12228L9.12709 27.7122C9.40588 28.5214 10.1685 29.0322 10.9811 29.0322C11.1942 29.0322 11.4108 28.9975 11.6237 28.9238L21.4247 25.5445H25.5971C26.6771 25.5445 27.556 24.666 27.556 23.5861V2.85429H27.5598ZM25.6011 24.2325H12.8083C12.452 24.2325 12.1657 23.9459 12.1657 23.5898V2.85429C12.1657 2.5058 12.452 2.22322 12.8083 2.22322H25.6011C25.9572 2.22322 26.2438 2.5058 26.2438 2.85429V23.5898C26.2438 23.9421 25.9572 24.2325 25.6011 24.2325ZM11.198 27.6815C10.8651 27.7975 10.4896 27.6156 10.3736 27.2867L3.61928 7.69654C3.5028 7.36364 3.68095 6.99979 4.01408 6.88378L10.8497 4.52255V23.5936C10.8497 24.6736 11.7284 25.5525 12.8083 25.5525H17.3912L11.198 27.6815Z" fill="currentColor"/>
<path d="M23.7021 12.9223C23.4346 12.113 22.9585 11.4009 22.3201 10.8705L21.5381 10.2047L20.7873 9.50799L20.0596 8.79187L19.359 8.04504C19.3163 7.99826 19.2584 7.97534 19.1963 7.97534C19.1343 7.97534 19.0765 8.00228 19.0339 8.04504L18.9408 8.14545C18.608 8.49772 18.31 8.81904 17.9927 9.13658C17.3692 9.76339 16.7074 10.3363 16.0842 10.8705C15.4377 11.4087 14.9579 12.1211 14.6945 12.9223C14.3153 14.1801 14.8263 15.5542 15.9334 16.2626C16.2701 16.4639 16.6415 16.5607 17.0134 16.5607C17.4777 16.5607 17.9422 16.4057 18.3332 16.1C18.3757 16.0653 18.4376 16.0613 18.4839 16.0925C18.5307 16.1232 18.5536 16.1775 18.5423 16.2314C18.4067 16.7968 18.1976 17.3888 17.919 17.9927C17.8647 18.1087 17.8765 18.2406 17.9502 18.3566C18.0237 18.4726 18.155 18.5465 18.2829 18.5465H20.1255C20.249 18.5465 20.3693 18.4768 20.4468 18.3566C20.5203 18.2406 20.5319 18.1087 20.4778 17.9927C20.2027 17.3888 19.9936 16.7968 19.8542 16.2314C19.8427 16.1775 19.862 16.1232 19.9124 16.0925C19.9589 16.0613 20.0208 16.0653 20.0633 16.1C20.4506 16.4057 20.9151 16.5607 21.3834 16.5607C21.755 16.5607 22.1302 16.4601 22.4673 16.2626C23.5702 15.5542 24.0772 14.1801 23.7021 12.9223Z" fill="currentColor"/>
<path d="M14.447 4.82434C14.5245 4.82434 14.6018 4.8052 14.6715 4.76267C14.8997 4.61949 15.0044 4.3407 14.9269 4.0853C14.8806 3.93811 14.7799 3.79493 14.6521 3.67892L14.3736 3.4195L14.0948 3.14473C14.0638 3.11354 14.0135 3.11354 13.9825 3.14473L13.4212 3.67892C13.3245 3.77532 13.2083 3.91094 13.1504 4.0853C13.0729 4.3407 13.1771 4.61949 13.402 4.76267C13.4755 4.8052 13.5568 4.82859 13.6341 4.82859C13.7191 4.82859 13.8044 4.80142 13.8779 4.75086C13.8507 4.84773 13.8082 4.94081 13.7697 5.02965L13.7581 5.05682C13.7425 5.09155 13.7463 5.1303 13.7656 5.16527C13.785 5.19622 13.8276 5.21535 13.8665 5.21535H14.2146C14.2571 5.21535 14.2843 5.20378 14.3114 5.17283C14.3426 5.1381 14.3348 5.08777 14.3192 5.05304C14.2767 4.95617 14.2379 4.85529 14.2108 4.75086C14.2805 4.7974 14.3617 4.82434 14.447 4.82434Z" fill="currentColor"/>
<path d="M6.5794 8.60623C6.76132 8.42809 6.7729 8.14174 6.60255 7.95202C6.46315 7.79726 6.24248 7.75474 6.06056 7.83223C6.09151 7.68905 6.05276 7.52627 5.95211 7.41026C5.82453 7.26307 5.61945 7.20495 5.43351 7.27087C5.25159 7.33655 5.12377 7.51091 5.11999 7.70441C5.11621 7.8594 5.18591 8.00234 5.29813 8.09519C5.10463 8.14953 4.96146 8.31965 4.95366 8.52874C4.94185 8.78438 5.12755 9.00103 5.38342 9.02442H5.42595C5.61544 9.02442 5.77822 8.90842 5.8517 8.73783C5.86328 8.93512 5.7898 9.12885 5.64662 9.26423C5.61945 9.2914 5.61166 9.33393 5.63079 9.36488C5.64662 9.39205 5.67757 9.40741 5.70451 9.40741C5.71231 9.40741 5.72388 9.40741 5.73168 9.40363L6.54467 9.10948C6.5794 9.0979 6.59853 9.05915 6.59475 9.02041C6.59097 8.9819 6.55601 8.95473 6.52128 8.95071C6.32021 8.93512 6.14585 8.8425 6.03363 8.68751C6.10332 8.72224 6.1768 8.74185 6.2543 8.74185C6.37408 8.73783 6.49033 8.69531 6.5794 8.60623Z" fill="currentColor"/>
<path d="M24.9528 21.7512C24.8019 21.6623 24.6161 21.6699 24.4768 21.7746C24.5039 21.6815 24.5424 21.5886 24.585 21.4996L24.6008 21.4686C24.6161 21.4336 24.6121 21.3911 24.5928 21.3602C24.5658 21.3176 24.5271 21.3176 24.5039 21.3176H24.1476C24.1247 21.3176 24.0742 21.3176 24.047 21.3602C24.0278 21.3911 24.0278 21.4299 24.0432 21.4686C24.0935 21.5768 24.1323 21.6699 24.1592 21.7705C24.0163 21.6699 23.8341 21.6583 23.6831 21.7474C23.4587 21.8943 23.3543 22.1731 23.4315 22.4248C23.4821 22.5795 23.5787 22.7227 23.7103 22.8311C23.9194 23.0053 24.1051 23.2025 24.2636 23.3731C24.2795 23.3887 24.3024 23.4003 24.322 23.4003C24.3452 23.4003 24.3645 23.3925 24.3801 23.3731C24.5812 23.1525 24.7593 22.9781 24.9375 22.8311C25.0653 22.7227 25.1619 22.5833 25.2122 22.4248C25.2857 22.1769 25.1813 21.8981 24.9528 21.7512Z" fill="currentColor"/>
</svg>
