<svg width="21" height="20" viewBox="0 0 21 20" fill="none" xmlns="http://www.w3.org/2000/svg">
<path d="M11.9479 8.58122C11.9479 9.25791 11.3987 9.80711 10.722 9.80711C10.0453 9.80711 9.4961 9.25791 9.4961 8.58122C9.4961 7.90453 10.0453 7.35533 10.722 7.35533C11.3987 7.35533 11.9479 7.90453 11.9479 8.58122ZM14.8083 7.35533C14.1316 7.35533 13.5824 7.90453 13.5824 8.58122C13.5824 9.25791 14.1316 9.80711 14.8083 9.80711C15.485 9.80711 16.0342 9.25791 16.0342 8.58122C16.0342 7.90453 15.485 7.35533 14.8083 7.35533ZM6.63569 7.35533C5.959 7.35533 5.4098 7.90453 5.4098 8.58122C5.4098 9.25791 5.959 9.80711 6.63569 9.80711C7.31238 9.80711 7.86158 9.25791 7.86158 8.58122C7.86158 7.90453 7.31238 7.35533 6.63569 7.35533ZM20.5291 3.26904V13.0761C20.5291 14.879 19.0629 16.3452 17.2601 16.3452H14.9292L11.7844 18.9441C11.4894 19.2072 11.111 19.3396 10.7285 19.3396C10.3395 19.3396 9.94804 19.2023 9.63585 18.9253L6.57195 16.3452H4.1831C2.38022 16.3452 0.914062 14.879 0.914062 13.0761V3.26904C0.91488 1.46616 2.38104 0 4.18392 0H17.2601C19.0629 0 20.5291 1.46616 20.5291 3.26904ZM18.8946 3.26904C18.8946 2.3676 18.1615 1.63452 17.2601 1.63452H4.18392C3.28248 1.63452 2.5494 2.3676 2.5494 3.26904V13.0761C2.5494 13.9776 3.28248 14.7107 4.18392 14.7107H6.87106C7.06312 14.7107 7.25027 14.7785 7.3982 14.9027L10.7065 17.6896L14.1152 14.8978C14.2615 14.7769 14.4454 14.7107 14.6358 14.7107H17.2609C18.1623 14.7107 18.8954 13.9776 18.8954 13.0761L18.8946 3.26904Z" fill="currentColor"/>
</svg>
