<svg width="17" height="16" viewBox="0 0 17 16" fill="none" xmlns="http://www.w3.org/2000/svg">
<path d="M13.5026 13.3334H11.8359C11.6591 13.3334 11.4896 13.2632 11.3645 13.1382C11.2395 13.0131 11.1693 12.8436 11.1693 12.6667C11.1693 12.4899 11.2395 12.3204 11.3645 12.1953C11.4896 12.0703 11.6591 12.0001 11.8359 12.0001H13.5026C13.5907 11.999 13.6748 11.9635 13.7371 11.9012C13.7994 11.839 13.8348 11.7548 13.8359 11.6667V2.33341C13.8348 2.24535 13.7994 2.16121 13.7371 2.09894C13.6748 2.03666 13.5907 2.00119 13.5026 2.00008H5.5026C5.41454 2.00119 5.3304 2.03666 5.26813 2.09894C5.20585 2.16121 5.17038 2.24535 5.16927 2.33341V4.00008C5.16927 4.17689 5.09903 4.34646 4.97401 4.47149C4.84898 4.59651 4.67942 4.66675 4.5026 4.66675C4.32579 4.66675 4.15622 4.59651 4.0312 4.47149C3.90618 4.34646 3.83594 4.17689 3.83594 4.00008V2.33341C3.8364 1.89153 4.01215 1.46788 4.32461 1.15542C4.63707 0.842956 5.06072 0.667212 5.5026 0.666748H13.5026C13.9445 0.667212 14.3681 0.842956 14.6806 1.15542C14.9931 1.46788 15.1688 1.89153 15.1693 2.33341V11.6667C15.1688 12.1086 14.9931 12.5323 14.6806 12.8447C14.3681 13.1572 13.9445 13.333 13.5026 13.3334Z" fill="currentColor"/>
<path d="M10.8359 15.3335H3.5026C3.06072 15.333 2.63707 15.1573 2.32461 14.8448C2.01215 14.5324 1.8364 14.1087 1.83594 13.6668V5.00016C1.8364 4.55828 2.01215 4.13462 2.32461 3.82216C2.63707 3.5097 3.06072 3.33396 3.5026 3.3335H10.8359C11.2778 3.33396 11.7015 3.5097 12.0139 3.82216C12.3264 4.13462 12.5021 4.55828 12.5026 5.00016V13.6668C12.5021 14.1087 12.3264 14.5324 12.0139 14.8448C11.7015 15.1573 11.2778 15.333 10.8359 15.3335ZM3.5026 4.66683C3.41423 4.66694 3.32952 4.7021 3.26703 4.76459C3.20454 4.82707 3.16939 4.91179 3.16927 5.00016V13.6668C3.16939 13.7552 3.20454 13.8399 3.26703 13.9024C3.32952 13.9649 3.41423 14 3.5026 14.0002H10.8359C10.9243 14 11.009 13.9649 11.0715 13.9024C11.134 13.8399 11.1692 13.7552 11.1693 13.6668V5.00016C11.1692 4.91179 11.134 4.82707 11.0715 4.76459C11.009 4.7021 10.9243 4.66694 10.8359 4.66683H3.5026Z" fill="currentColor"/>
</svg>
