<svg width="21" height="20" viewBox="0 0 21 20" fill="none" xmlns="http://www.w3.org/2000/svg">
<path d="M16.0279 1.63452H15.2107V0.817259C15.2107 0.600508 15.1246 0.392635 14.9713 0.23937C14.818 0.0861038 14.6102 0 14.3934 0C14.1767 0 13.9688 0.0861038 13.8155 0.23937C13.6622 0.392635 13.5761 0.600508 13.5761 0.817259V1.63452H7.03807V0.817259C7.03807 0.600508 6.95197 0.392635 6.7987 0.23937C6.64544 0.0861038 6.43756 0 6.22081 0C6.00406 0 5.79619 0.0861038 5.64292 0.23937C5.48966 0.392635 5.40355 0.600508 5.40355 0.817259V1.63452H4.58629C3.50294 1.63582 2.46433 2.06675 1.69828 2.8328C0.932233 3.59885 0.501298 4.63746 0.5 5.72081L0.5 15.5279C0.501298 16.6113 0.932233 17.6499 1.69828 18.4159C2.46433 19.182 3.50294 19.6129 4.58629 19.6142H16.0279C17.1113 19.6129 18.1499 19.182 18.9159 18.4159C19.682 17.6499 20.1129 16.6113 20.1142 15.5279V5.72081C20.1129 4.63746 19.682 3.59885 18.9159 2.8328C18.1499 2.06675 17.1113 1.63582 16.0279 1.63452ZM2.13452 5.72081C2.13452 5.07056 2.39283 4.44694 2.85263 3.98714C3.31242 3.52735 3.93604 3.26904 4.58629 3.26904H16.0279C16.6782 3.26904 17.3018 3.52735 17.7616 3.98714C18.2214 4.44694 18.4797 5.07056 18.4797 5.72081V6.53807H2.13452V5.72081ZM16.0279 17.9797H4.58629C3.93604 17.9797 3.31242 17.7214 2.85263 17.2616C2.39283 16.8018 2.13452 16.1782 2.13452 15.5279V8.17259H18.4797V15.5279C18.4797 16.1782 18.2214 16.8018 17.7616 17.2616C17.3018 17.7214 16.6782 17.9797 16.0279 17.9797Z" fill="currentColor"/>
<path d="M10.304 13.4847C10.9811 13.4847 11.5299 12.9359 11.5299 12.2588C11.5299 11.5818 10.9811 11.033 10.304 11.033C9.62697 11.033 9.07812 11.5818 9.07812 12.2588C9.07812 12.9359 9.62697 13.4847 10.304 13.4847Z" fill="currentColor"/>
<path d="M6.21808 13.4847C6.89512 13.4847 7.44396 12.9359 7.44396 12.2588C7.44396 11.5818 6.89512 11.033 6.21808 11.033C5.54104 11.033 4.99219 11.5818 4.99219 12.2588C4.99219 12.9359 5.54104 13.4847 6.21808 13.4847Z" fill="currentColor"/>
<path d="M14.39 13.4847C15.067 13.4847 15.6158 12.9359 15.6158 12.2588C15.6158 11.5818 15.067 11.033 14.39 11.033C13.7129 11.033 13.1641 11.5818 13.1641 12.2588C13.1641 12.9359 13.7129 13.4847 14.39 13.4847Z" fill="currentColor"/>
</svg>
