<svg width="25" height="25" viewBox="0 0 25 25" fill="none" xmlns="http://www.w3.org/2000/svg">
<path d="M21.7394 11.7319V22.4017H4.07542V11.7319H2.42969V23.2245C2.42969 23.679 2.79803 24.0474 3.25253 24.0474H22.5623C23.0168 24.0474 23.3851 23.679 23.3851 23.2245V11.7319H21.7394Z" fill="currentColor"/>
<path d="M24.0678 5.5603H1.71347C1.25897 5.5603 0.890625 5.92865 0.890625 6.38315V11.7591C0.890625 12.2136 1.25897 12.582 1.71347 12.582H24.0677C24.5222 12.582 24.8906 12.2139 24.8906 11.7591V6.38315C24.8906 5.92865 24.5223 5.5603 24.0678 5.5603ZM23.2449 10.9366H2.53636V7.20632H23.2449V10.9366H23.2449Z" fill="currentColor"/>
<path d="M13.6987 6.17503C13.6428 5.96165 12.2853 0.952637 8.32216 0.952637C6.598 0.952637 5.19531 2.35532 5.19531 4.07948C5.19531 5.80364 6.58567 7.20632 8.29473 7.20632H12.9027C13.1575 7.20632 13.3984 7.08811 13.5542 6.88622C13.7099 6.68432 13.7632 6.42159 13.6987 6.17503ZM8.29478 5.56064C7.47963 5.56064 6.84105 4.91001 6.84105 4.07948C6.84105 3.27665 7.51938 2.59832 8.3222 2.59832C10.1278 2.59832 11.209 4.37709 11.7288 5.56059L8.29478 5.56064Z" fill="currentColor"/>
<path d="M17.4816 0.952637C13.5185 0.952637 12.161 5.96165 12.105 6.17503C12.0403 6.42159 12.0938 6.68437 12.2496 6.88626C12.4054 7.08815 12.6459 7.20637 12.901 7.20637H17.509C19.2181 7.20637 20.6085 5.80368 20.6085 4.07953C20.6085 2.35532 19.2058 0.952637 17.4816 0.952637ZM17.5091 5.56064H14.0717C14.5877 4.37709 15.6656 2.59837 17.4819 2.59837C18.2848 2.59837 18.9631 3.2767 18.9631 4.07953C18.963 4.91001 18.3245 5.56064 17.5091 5.56064Z" fill="currentColor"/>
<path d="M13.7239 6.3833H12.0781V23.2245H13.7239V6.3833Z" fill="currentColor"/>
</svg>
