<svg width="60" height="25" viewBox="0 0 60 25" fill="none" xmlns="http://www.w3.org/2000/svg">
<path d="M16.231 11.1676C16.252 9.5316 17.1097 8.02043 18.5036 7.16353C17.6203 5.90205 16.1938 5.13092 14.6546 5.08272C13.0352 4.91275 11.4653 6.05176 10.64 6.05176C9.79885 6.05176 8.52831 5.09962 7.16011 5.12776C5.35993 5.18592 3.72238 6.18461 2.84658 7.75842C0.981553 10.9875 2.37268 15.7332 4.15928 18.3434C5.05313 19.6215 6.0978 21.0492 7.46477 20.9985C8.80241 20.9431 9.30198 20.1456 10.9166 20.1456C12.5163 20.1456 12.9849 20.9985 14.3796 20.9664C15.815 20.9431 16.7193 19.6826 17.5818 18.3923C18.2241 17.4816 18.7183 16.4751 19.0461 15.41C17.3414 14.689 16.233 13.0186 16.231 11.1676Z" fill="currentColor"/>
<path d="M13.5996 3.36623C14.3822 2.42673 14.7678 1.21919 14.6744 0C13.4788 0.12559 12.3743 0.69702 11.5811 1.60047C10.7979 2.49182 10.4011 3.65798 10.4782 4.8421C11.6899 4.85457 12.8403 4.31058 13.5996 3.36623Z" fill="currentColor"/>
<path d="M26.32 9.4H28.24V20H26.32V9.4ZM27.28 7.36C26.9067 7.36 26.5933 7.24 26.34 7C26.1 6.76 25.98 6.46667 25.98 6.12C25.98 5.77333 26.1 5.48 26.34 5.24C26.5933 4.98667 26.9067 4.86 27.28 4.86C27.6533 4.86 27.96 4.98 28.2 5.22C28.4533 5.44667 28.58 5.73333 28.58 6.08C28.58 6.44 28.4533 6.74667 28.2 7C27.96 7.24 27.6533 7.36 27.28 7.36ZM38.5059 20.16C37.0926 20.16 35.8193 19.8533 34.6859 19.24C33.5526 18.6133 32.6593 17.7533 32.0059 16.66C31.3659 15.5667 31.0459 14.3467 31.0459 13C31.0459 11.6533 31.3659 10.4333 32.0059 9.34C32.6593 8.24667 33.5526 7.39333 34.6859 6.78C35.8193 6.15333 37.0926 5.84 38.5059 5.84C39.9059 5.84 41.1726 6.15333 42.3059 6.78C43.4393 7.39333 44.3259 8.24667 44.9659 9.34C45.6059 10.42 45.9259 11.64 45.9259 13C45.9259 14.36 45.6059 15.5867 44.9659 16.68C44.3259 17.76 43.4393 18.6133 42.3059 19.24C41.1726 19.8533 39.9059 20.16 38.5059 20.16ZM38.5059 18.38C39.5326 18.38 40.4526 18.1467 41.2659 17.68C42.0926 17.2133 42.7393 16.5733 43.2059 15.76C43.6859 14.9333 43.9259 14.0133 43.9259 13C43.9259 11.9867 43.6859 11.0733 43.2059 10.26C42.7393 9.43333 42.0926 8.78667 41.2659 8.32C40.4526 7.85333 39.5326 7.62 38.5059 7.62C37.4793 7.62 36.5459 7.85333 35.7059 8.32C34.8793 8.78667 34.2259 9.43333 33.7459 10.26C33.2793 11.0733 33.0459 11.9867 33.0459 13C33.0459 14.0133 33.2793 14.9333 33.7459 15.76C34.2259 16.5733 34.8793 17.2133 35.7059 17.68C36.5459 18.1467 37.4793 18.38 38.5059 18.38ZM53.0628 20.16C52.0095 20.16 50.9895 20 50.0028 19.68C49.0295 19.3467 48.2628 18.92 47.7028 18.4L48.4428 16.84C48.9761 17.32 49.6561 17.7133 50.4828 18.02C51.3228 18.3133 52.1828 18.46 53.0628 18.46C54.2228 18.46 55.0895 18.2667 55.6628 17.88C56.2361 17.48 56.5228 16.9533 56.5228 16.3C56.5228 15.82 56.3628 15.4333 56.0428 15.14C55.7361 14.8333 55.3495 14.6 54.8828 14.44C54.4295 14.28 53.7828 14.1 52.9428 13.9C51.8895 13.6467 51.0361 13.3933 50.3828 13.14C49.7428 12.8867 49.1895 12.5 48.7228 11.98C48.2695 11.4467 48.0428 10.7333 48.0428 9.84C48.0428 9.09333 48.2361 8.42 48.6228 7.82C49.0228 7.22 49.6228 6.74 50.4228 6.38C51.2228 6.02 52.2161 5.84 53.4028 5.84C54.2295 5.84 55.0428 5.94667 55.8428 6.16C56.6428 6.37333 57.3295 6.68 57.9028 7.08L57.2428 8.68C56.6561 8.30667 56.0295 8.02667 55.3628 7.84C54.6961 7.64 54.0428 7.54 53.4028 7.54C52.2695 7.54 51.4161 7.74667 50.8428 8.16C50.2828 8.57333 50.0028 9.10667 50.0028 9.76C50.0028 10.24 50.1628 10.6333 50.4828 10.94C50.8028 11.2333 51.1961 11.4667 51.6628 11.64C52.1428 11.8 52.7895 11.9733 53.6028 12.16C54.6561 12.4133 55.5028 12.6667 56.1428 12.92C56.7828 13.1733 57.3295 13.56 57.7828 14.08C58.2495 14.6 58.4828 15.3 58.4828 16.18C58.4828 16.9133 58.2828 17.5867 57.8828 18.2C57.4828 18.8 56.8761 19.28 56.0628 19.64C55.2495 19.9867 54.2495 20.16 53.0628 20.16Z" fill="currentColor"/>
</svg>
