<svg width="25" height="24" viewBox="0 0 25 24" fill="none" xmlns="http://www.w3.org/2000/svg">
<path d="M17.4921 8.19232C17.8583 8.55853 17.8583 9.15216 17.4921 9.51819L11.2028 15.8077C10.8365 16.1737 10.2431 16.1737 9.87689 15.8077L6.88293 12.8135C6.51672 12.4475 6.51672 11.8539 6.88293 11.4879C7.24896 11.1216 7.84259 11.1216 8.20862 11.4879L10.5397 13.819L16.1662 8.19232C16.5324 7.82629 17.126 7.82629 17.4921 8.19232ZM24.1875 12C24.1875 18.633 18.8196 24 12.1875 24C5.5545 24 0.1875 18.6321 0.1875 12C0.1875 5.367 5.55542 0 12.1875 0C18.8205 0 24.1875 5.36792 24.1875 12ZM22.3125 12C22.3125 6.40338 17.7834 1.875 12.1875 1.875C6.59088 1.875 2.0625 6.40411 2.0625 12C2.0625 17.5966 6.59161 22.125 12.1875 22.125C17.7841 22.125 22.3125 17.5959 22.3125 12Z" fill="currentColor"/>
</svg>
