<svg width="22" height="22" viewBox="0 0 22 22" fill="none" xmlns="http://www.w3.org/2000/svg">
<path d="M21.0434 10.0435H0.956506C0.428238 10.0435 0 10.4717 0 11C0 11.5282 0.428238 11.9565 0.956506 11.9565H21.0434C21.5717 11.9565 22 11.5282 22 11C22 10.4717 21.5717 10.0435 21.0434 10.0435Z" fill="currentColor"/>
<path d="M0.956506 5.26091H21.0434C21.5717 5.26091 22 4.83268 22 4.30441C22 3.77614 21.5717 3.3479 21.0434 3.3479H0.956506C0.428238 3.3479 0 3.77614 0 4.30441C0 4.83268 0.428238 5.26091 0.956506 5.26091Z" fill="currentColor"/>
<path d="M21.0434 16.7393H0.956506C0.428238 16.7393 0 17.1675 0 17.6958C0 18.2241 0.428238 18.6523 0.956506 18.6523H21.0434C21.5717 18.6523 22 18.2241 22 17.6958C22 17.1675 21.5717 16.7393 21.0434 16.7393Z" fill="currentColor"/>
</svg>
