<svg width="26" height="23" viewBox="0 0 26 23" fill="none" xmlns="http://www.w3.org/2000/svg">
<path d="M16.6501 9H5.23711C4.78691 9 4.42188 9.33579 4.42188 9.75002V16.25C4.42188 16.6642 4.78687 17 5.23711 17H16.6501C17.1003 17 17.4654 16.6643 17.4654 16.25V9.74997C17.4653 9.33579 17.1003 9 16.6501 9ZM8.22622 15.5H6.05229V10.5H8.22622V15.5ZM12.0306 15.5H9.85664V10.5H12.0306V15.5ZM15.8349 15.5H13.661V10.5H15.8349V15.5Z" fill="currentColor"/>
<path d="M23.445 0C22.0964 0 20.9993 1.00935 20.9993 2.25C20.9993 3.22777 21.6809 4.06139 22.6297 4.37099V10.5H20.9993V9.25C20.9993 4.14957 16.489 0 10.945 0C5.40103 0 0.890625 4.14957 0.890625 9.25V20.75C0.890625 21.9907 1.98774 23 3.33628 23H18.5537C19.9022 23 20.9993 21.9907 20.9993 20.75V12H23.445C23.8952 12 24.2602 11.6642 24.2602 11.25V4.37099C25.209 4.06139 25.8906 3.22777 25.8906 2.25C25.8906 1.00935 24.7935 0 23.445 0ZM19.3689 20.75C19.3689 21.1635 19.0032 21.5 18.5537 21.5H3.33628C2.88677 21.5 2.52104 21.1635 2.52104 20.75V9.25C2.52104 4.97667 6.3 1.49999 10.945 1.49999C15.5899 1.49999 19.3689 4.97662 19.3689 9.25V20.75ZM23.445 3.00002C22.9955 3.00002 22.6297 2.66355 22.6297 2.25C22.6297 1.83645 22.9955 1.49999 23.445 1.49999C23.8945 1.49999 24.2602 1.83645 24.2602 2.25C24.2602 2.66355 23.8945 3.00002 23.445 3.00002Z" fill="currentColor"/>
<path d="M16.3234 6.49941C15.5167 4.40632 13.3545 3 10.943 3C8.53145 3 6.36929 4.40628 5.5627 6.49941C5.41226 6.88983 5.63433 7.31852 6.0587 7.45692C6.48316 7.59542 6.94903 7.39107 7.09947 7.0007C7.67583 5.50493 9.22046 4.50003 10.9431 4.50003C12.6656 4.50003 14.2103 5.50498 14.7867 7.0007C14.9053 7.30823 15.2195 7.50032 15.5551 7.50023C15.6455 7.50023 15.7374 7.48626 15.8275 7.45692C16.2518 7.31847 16.4739 6.88983 16.3234 6.49941Z" fill="currentColor"/>
<path d="M10.948 7.50003C11.3983 7.50003 11.7633 7.16424 11.7633 6.75002C11.7633 6.33579 11.3983 6 10.948 6C10.4978 6 10.1328 6.33579 10.1328 6.75002C10.1328 7.16424 10.4978 7.50003 10.948 7.50003Z" fill="currentColor"/>
<path d="M15.0221 18.5H6.86992C6.41973 18.5 6.05469 18.8358 6.05469 19.25C6.05469 19.6642 6.41968 20 6.86992 20H15.0221C15.4723 20 15.8373 19.6642 15.8373 19.25C15.8373 18.8358 15.4723 18.5 15.0221 18.5Z" fill="currentColor"/>
</svg>
