<svg width="31" height="31" viewBox="0 0 31 31" fill="none" xmlns="http://www.w3.org/2000/svg">
<path d="M15.3281 0.5C7.04398 0.5 0.328125 7.21585 0.328125 15.5C0.328125 23.7841 7.04398 30.5 15.3281 30.5C23.6123 30.5 30.3281 23.7841 30.3281 15.5C30.3185 7.21974 23.6084 0.509613 15.3281 0.5ZM27.3639 21.5825L24.7613 20.0806C25.3465 18.8815 25.6958 17.581 25.7901 16.25H28.79C28.6902 18.1072 28.2046 19.9234 27.3639 21.5825ZM14.5781 25.962V28.9619C12.7205 28.8621 10.9041 28.3762 9.2449 27.5353L10.7473 24.9334C11.9466 25.5188 13.2471 25.8679 14.5781 25.962ZM16.0782 25.962C17.4091 25.8679 18.7096 25.5188 19.909 24.9334L21.4113 27.5353C19.7522 28.3762 17.9358 28.8621 16.0782 28.9619V25.962ZM15.3281 24.5001C10.3575 24.5001 6.32803 20.4706 6.32803 15.5C6.32803 10.5294 10.3575 6.49991 15.3281 6.49991C20.2988 6.49991 24.3282 10.5294 24.3282 15.5C24.3227 20.4683 20.2965 24.4946 15.3281 24.5001ZM1.86621 16.25H4.86617C4.96024 17.581 5.30928 18.8815 5.89453 20.0806L3.29237 21.5825C2.45169 19.9234 1.966 18.1072 1.86621 16.25ZM3.29237 9.41747L5.89499 10.9194C5.30951 12.1185 4.96024 13.419 4.86617 14.75H1.86621C1.966 12.8928 2.45169 11.0766 3.29237 9.41747ZM16.0782 5.03804V2.03809C17.9358 2.13788 19.7522 2.62357 21.4113 3.46471L19.909 6.06664C18.7096 5.48116 17.4091 5.13211 16.0782 5.03804ZM14.5781 5.03804C13.2471 5.13211 11.9466 5.48116 10.7473 6.06664L9.2449 3.46471C10.9041 2.62379 12.7205 2.13788 14.5781 2.03809V5.03804ZM25.7901 14.75C25.696 13.419 25.347 12.1185 24.7617 10.9194L27.3641 9.41747C28.2048 11.0766 28.6905 12.8928 28.79 14.75H25.7901ZM26.6163 8.11673L24.0192 9.61591C23.2687 8.51132 22.3161 7.55872 21.2115 6.80821L22.7116 4.21132C24.2666 5.23236 25.5955 6.56148 26.6163 8.11673ZM7.94508 4.21132L9.44472 6.80844C8.34013 7.55894 7.38753 8.51132 6.63725 9.61591L4.0399 8.11673C5.06071 6.56148 6.38983 5.23236 7.94508 4.21132ZM4.0399 22.8833L6.63702 21.3841C7.38753 22.4887 8.34013 23.4413 9.44472 24.1916L7.94508 26.7887C6.38983 25.7676 5.06071 24.4385 4.0399 22.8833ZM22.7112 26.7887L21.2111 24.1916C22.3157 23.4413 23.2683 22.4887 24.0188 21.3841L26.6159 22.8833C25.5953 24.4385 24.2662 25.7676 22.7112 26.7887Z" fill="currentColor"/>
<path d="M19.8281 13.9998C19.3014 14.0062 18.818 14.2919 18.5587 14.7499H17.4399C17.2136 14.1145 16.7135 13.6146 16.0781 13.388V12.2695C16.5361 12.0097 16.8217 11.5263 16.8281 10.9999C16.8281 10.1715 16.1566 9.5 15.328 9.5C14.4997 9.5 13.8282 10.1715 13.8282 10.9999C13.8346 11.5263 14.1202 12.0099 14.5782 12.2695V13.388C13.9428 13.6146 13.4427 14.1145 13.2164 14.7499H12.0976C11.838 14.2919 11.3546 14.0062 10.8282 13.9998C9.99989 13.9998 9.32812 14.6716 9.32812 15.4999C9.32812 16.3282 9.99989 17 10.8282 17C11.3546 16.9936 11.838 16.7079 12.0976 16.25H13.2164C13.4427 16.8853 13.9428 17.3852 14.5782 17.6118V18.7303C14.1202 18.9901 13.8346 19.4735 13.8282 20C13.8282 20.8283 14.4997 21.4998 15.328 21.4998C16.1566 21.4998 16.8281 20.8283 16.8281 20C16.8217 19.4735 16.5361 18.9899 16.0781 18.7303V17.6118C16.7135 17.3852 17.2136 16.8853 17.4399 16.25H18.5587C18.8183 16.7079 19.3017 16.9936 19.8281 17C20.6564 17 21.3279 16.3282 21.3279 15.4999C21.3279 14.6716 20.6564 13.9998 19.8281 13.9998ZM15.328 16.25C14.9138 16.25 14.578 15.9142 14.578 15.4999C14.578 15.0856 14.9138 14.7499 15.328 14.7499C15.7423 14.7499 16.0781 15.0856 16.0781 15.4999C16.0776 15.914 15.7421 16.2495 15.328 16.25Z" fill="currentColor"/>
</svg>
