<svg width="36" height="36" viewBox="0 0 36 36" fill="none" xmlns="http://www.w3.org/2000/svg">
<path fill-rule="evenodd" clip-rule="evenodd" d="M27.8979 15.297C27.4614 14.97 26.8809 14.9055 26.3844 15.129C25.8864 15.351 25.5489 15.828 25.5024 16.371C25.2669 19.158 24.4344 21.3495 22.8909 22.884C21.3714 24.396 19.1904 25.2465 16.3629 25.506C15.8214 25.5555 15.3489 25.8945 15.1284 26.391C14.9079 26.8875 14.9739 27.465 15.2994 27.9C16.9419 30.0885 19.5579 31.5 22.5024 31.5C27.4689 31.5 31.5024 27.4665 31.5024 22.5C31.5024 19.5555 30.0864 16.9395 27.8979 15.297ZM8.56294 29.5605L29.5614 8.562C30.1479 7.977 30.1479 7.026 29.5614 6.441C28.9764 5.8545 28.0254 5.8545 27.4404 6.441L6.44194 27.4395C5.85694 28.0245 5.85694 28.9755 6.44194 29.5605C7.02694 30.1455 7.97794 30.1455 8.56294 29.5605ZM5.66044 18.3645C5.07544 17.778 5.07544 16.8285 5.66044 16.242C6.24544 15.657 7.19643 15.657 7.78143 16.242C8.36643 16.8285 8.36643 17.778 7.78143 18.3645C7.19643 18.9495 6.24544 18.9495 5.66044 18.3645ZM12.0024 7.5015C9.51844 7.5015 7.50244 9.5175 7.50244 12C7.50244 14.484 9.51844 16.5 12.0024 16.5C14.4849 16.5 16.5009 14.484 16.5009 12C16.5009 9.5175 14.4849 7.5015 12.0024 7.5015ZM6.02344 12C6.02344 12.828 5.35144 13.5 4.52344 13.5C3.69694 13.5 3.02344 12.828 3.02344 12C3.02344 11.172 3.69694 10.5 4.52344 10.5C5.35144 10.5 6.02344 11.172 6.02344 12ZM5.66044 5.63551C6.24544 5.05051 7.19643 5.05051 7.78143 5.63551C8.36643 6.22201 8.36643 7.1715 7.78143 7.758C7.19643 8.343 6.24544 8.343 5.66044 7.758C5.07544 7.1715 5.07544 6.22201 5.66044 5.63551ZM16.2669 7.758C15.6819 7.1715 15.6819 6.22201 16.2669 5.63551C16.8519 5.05051 17.8029 5.05051 18.3879 5.63551C18.9729 6.22201 18.9729 7.1715 18.3879 7.758C17.8029 8.343 16.8519 8.343 16.2669 7.758ZM12.0234 3C12.8514 3 13.5234 3.672 13.5234 4.5C13.5234 5.328 12.8514 6 12.0234 6C11.1969 6 10.5234 5.328 10.5234 4.5C10.5234 3.672 11.1969 3 12.0234 3Z" fill="currentColor"/>
</svg>
