<svg width="21" height="20" viewBox="0 0 21 20" fill="none" xmlns="http://www.w3.org/2000/svg">
<path d="M19.9439 7.69786C18.6764 5.63347 15.7931 2.16992 10.7326 2.16992C5.67215 2.16992 2.78886 5.63347 1.52129 7.69786C1.12944 8.33165 0.921875 9.06206 0.921875 9.80721C0.921875 10.5523 1.12944 11.2828 1.52129 11.9166C2.78886 13.9809 5.67215 17.4445 10.7326 17.4445C15.7931 17.4445 18.6764 13.9809 19.9439 11.9166C20.3358 11.2828 20.5434 10.5523 20.5434 9.80721C20.5434 9.06206 20.3358 8.33165 19.9439 7.69786ZM18.5505 11.0609C17.4619 12.8311 14.9979 15.81 10.7326 15.81C6.46734 15.81 4.00331 12.8311 2.91472 11.0609C2.68191 10.6842 2.5586 10.2501 2.5586 9.80721C2.5586 9.36436 2.68191 8.93025 2.91472 8.55353C4.00331 6.78335 6.46734 3.80444 10.7326 3.80444C14.9979 3.80444 17.4619 6.78008 18.5505 8.55353C18.7833 8.93025 18.9066 9.36436 18.9066 9.80721C18.9066 10.2501 18.7833 10.6842 18.5505 11.0609Z" fill="currentColor"/>
<path d="M10.7347 5.7207C9.92654 5.7207 9.1365 5.96036 8.46451 6.40937C7.79252 6.85838 7.26877 7.49657 6.95949 8.24324C6.65021 8.98991 6.56929 9.81153 6.72696 10.6042C6.88463 11.3969 7.27381 12.125 7.84529 12.6964C8.41677 13.2679 9.14487 13.6571 9.93754 13.8148C10.7302 13.9724 11.5518 13.8915 12.2985 13.5822C13.0452 13.273 13.6834 12.7492 14.1324 12.0772C14.5814 11.4052 14.821 10.6152 14.821 9.807C14.8197 8.72364 14.3888 7.68503 13.6227 6.91898C12.8567 6.15294 11.8181 5.722 10.7347 5.7207ZM10.7347 12.2588C10.2498 12.2588 9.77579 12.115 9.3726 11.8456C8.96941 11.5762 8.65516 11.1933 8.46959 10.7453C8.28402 10.2972 8.23546 9.80428 8.33007 9.32868C8.42467 8.85308 8.65818 8.41622 9.00107 8.07333C9.34395 7.73044 9.78082 7.49693 10.2564 7.40233C10.732 7.30773 11.225 7.35628 11.673 7.54185C12.121 7.72742 12.5039 8.04167 12.7733 8.44486C13.0427 8.84806 13.1865 9.32208 13.1865 9.807C13.1865 10.4572 12.9282 11.0809 12.4684 11.5407C12.0086 12.0005 11.385 12.2588 10.7347 12.2588Z" fill="currentColor"/>
</svg>
