<svg width="15" height="16" viewBox="0 0 15 16" fill="none" xmlns="http://www.w3.org/2000/svg">
<g id="close 1" clip-path="url(#clip0_13583_271)">
<path id="Vector" d="M8.87423 7.70016L14.7149 1.85928C15.095 1.47935 15.095 0.865064 14.7149 0.485139C14.335 0.105214 13.7207 0.105214 13.3408 0.485139L7.49992 6.32602L1.65921 0.485139C1.27911 0.105214 0.665002 0.105214 0.285077 0.485139C-0.0950257 0.865064 -0.0950257 1.47935 0.285077 1.85928L6.12578 7.70016L0.285077 13.541C-0.0950257 13.921 -0.0950257 14.5352 0.285077 14.9152C0.474417 15.1047 0.72337 15.1999 0.972145 15.1999C1.22092 15.1999 1.4697 15.1047 1.65921 14.9152L7.49992 9.07429L13.3408 14.9152C13.5303 15.1047 13.7791 15.1999 14.0279 15.1999C14.2766 15.1999 14.5254 15.1047 14.7149 14.9152C15.095 14.5352 15.095 13.921 14.7149 13.541L8.87423 7.70016Z" fill="white"/>
</g>
<defs>
<clipPath id="clip0_13583_271">
<rect width="15" height="15" fill="white" transform="translate(0 0.1875)"/>
</clipPath>
</defs>
</svg>
