<svg width="0" height="0" class="hidden">
  <symbol fill="none" xmlns="http://www.w3.org/2000/svg" viewBox="0 0 34 34" id="ic_arr_hor">
    <path d="M10.6249 16.9999C10.6249 17.2717 10.7288 17.5437 10.9362 17.7511L21.5612 28.3761C21.9764 28.7913 22.6487 28.7913 23.0636 28.3761C23.4785 27.9609 23.4788 27.2887 23.0636 26.8737L13.1898 16.9999L23.0636 7.12612C23.4788 6.71095 23.4788 6.03865 23.0636 5.62374C22.6485 5.20884 21.9762 5.20857 21.5612 5.62374L10.9362 16.2487C10.7288 16.4562 10.6249 16.7282 10.6249 16.9999Z" fill="currentColor"></path>
  </symbol>
  <symbol fill="none" xmlns="http://www.w3.org/2000/svg" viewBox="0 0 8 9" id="ic_arr_ver">
    <path d="M4.0013 6.72583L0.320312 3.04485L1.0912 2.27395L4.0013 5.18406L6.91139 2.27395L7.68228 3.04485L4.0013 6.72583Z" fill="currentColor"></path>
    <path d="M4.0013 6.72583L0.320312 3.04485L1.0912 2.27395L4.0013 5.18406L6.91139 2.27395L7.68228 3.04485L4.0013 6.72583Z" stroke="currentColor" stroke-miterlimit="10"></path>
  </symbol>
  <symbol fill="none" xmlns="http://www.w3.org/2000/svg" viewBox="0 0 20 20" id="ic_close">
    <path d="M11.8323 10.0163L19.6199 2.22846C20.1267 1.7219 20.1267 0.902849 19.6199 0.396282C19.1133 -0.110284 18.2943 -0.110284 17.7877 0.396282L9.99989 8.18412L2.21228 0.396282C1.70548 -0.110284 0.88667 -0.110284 0.380103 0.396282C-0.126701 0.902849 -0.126701 1.7219 0.380103 2.22846L8.16771 10.0163L0.380103 17.8041C-0.126701 18.3107 -0.126701 19.1298 0.380103 19.6363C0.632556 19.889 0.964494 20.016 1.29619 20.016C1.62789 20.016 1.95959 19.889 2.21228 19.6363L9.99989 11.8485L17.7877 19.6363C18.0404 19.889 18.3721 20.016 18.7038 20.016C19.0355 20.016 19.3672 19.889 19.6199 19.6363C20.1267 19.1298 20.1267 18.3107 19.6199 17.8041L11.8323 10.0163Z" fill="currentColor"></path>
  </symbol>
  <symbol fill="none" xmlns="http://www.w3.org/2000/svg" viewBox="0 0 26 29" id="ic_android">
    <path d="M18.9833 16.6202C18.3853 16.6203 17.9004 16.1356 17.9003 15.5376C17.9002 14.9396 18.3849 14.4548 18.9829 14.4547C19.5809 14.4546 20.0657 14.9392 20.0659 15.5372C20.0652 16.1349 19.581 16.6193 18.9833 16.6202ZM7.0167 16.6202C6.4187 16.6203 5.93389 16.1356 5.93374 15.5376C5.93364 14.9396 6.41829 14.4548 7.01629 14.4547C7.61429 14.4546 8.0991 14.9392 8.09925 15.5372C8.09864 16.1349 7.61439 16.6194 7.0167 16.6202ZM19.3716 10.0986L21.5352 6.35118C21.6597 6.13592 21.586 5.86054 21.3708 5.73607C21.1555 5.61161 20.8801 5.68524 20.7557 5.9005L18.5647 9.69528C16.8892 8.93062 15.0076 8.50482 12.9998 8.50482C10.992 8.50482 9.11056 8.93123 7.43514 9.69528L5.24433 5.9005C5.12007 5.68519 4.84473 5.61135 4.62942 5.73566C4.41411 5.85993 4.34027 6.13526 4.46459 6.35057L6.62843 10.0986C2.91302 12.1195 0.371719 15.8808 0 20.3248H26C25.6279 15.8808 23.0868 12.1195 19.3716 10.0986Z" fill="currentColor"></path>
    <path d="M2.704 24.1147C3.144 24.1147 3.48 24.2227 3.712 24.4387C3.948 24.6547 4.066 24.9767 4.066 25.4047V27.3247H3.52V26.9047C3.424 27.0527 3.286 27.1667 3.106 27.2467C2.93 27.3227 2.72 27.3607 2.476 27.3607C2.12 27.3607 1.834 27.2747 1.618 27.1027C1.406 26.9307 1.3 26.7047 1.3 26.4247C1.3 26.1447 1.402 25.9207 1.606 25.7527C1.81 25.5807 2.134 25.4947 2.578 25.4947H3.49V25.3807C3.49 25.1327 3.418 24.9427 3.274 24.8107C3.13 24.6787 2.918 24.6127 2.638 24.6127C2.45 24.6127 2.266 24.6447 2.086 24.7087C1.906 24.7687 1.754 24.8507 1.63 24.9547L1.39 24.5227C1.554 24.3907 1.75 24.2907 1.978 24.2227C2.206 24.1507 2.448 24.1147 2.704 24.1147ZM2.572 26.9167C2.792 26.9167 2.982 26.8687 3.142 26.7727C3.302 26.6727 3.418 26.5327 3.49 26.3527V25.9087H2.602C2.114 25.9087 1.87 26.0727 1.87 26.4007C1.87 26.5607 1.932 26.6867 2.056 26.7787C2.18 26.8707 2.352 26.9167 2.572 26.9167ZM6.82994 24.1147C7.23394 24.1147 7.55394 24.2327 7.78994 24.4687C8.02994 24.7007 8.14994 25.0427 8.14994 25.4947V27.3247H7.57394V25.5607C7.57394 25.2527 7.49994 25.0207 7.35194 24.8647C7.20394 24.7087 6.99194 24.6307 6.71594 24.6307C6.40394 24.6307 6.15794 24.7227 5.97794 24.9067C5.79794 25.0867 5.70794 25.3467 5.70794 25.6867V27.3247H5.13194V24.1447H5.68394V24.6247C5.79994 24.4607 5.95594 24.3347 6.15194 24.2467C6.35194 24.1587 6.57794 24.1147 6.82994 24.1147ZM12.2335 22.8727V27.3247H11.6815V26.8207C11.5535 26.9967 11.3915 27.1307 11.1955 27.2227C10.9995 27.3147 10.7835 27.3607 10.5475 27.3607C10.2395 27.3607 9.9635 27.2927 9.7195 27.1567C9.4755 27.0207 9.2835 26.8307 9.1435 26.5867C9.0075 26.3387 8.9395 26.0547 8.9395 25.7347C8.9395 25.4147 9.0075 25.1327 9.1435 24.8887C9.2835 24.6447 9.4755 24.4547 9.7195 24.3187C9.9635 24.1827 10.2395 24.1147 10.5475 24.1147C10.7755 24.1147 10.9855 24.1587 11.1775 24.2467C11.3695 24.3307 11.5295 24.4567 11.6575 24.6247V22.8727H12.2335ZM10.5955 26.8567C10.7955 26.8567 10.9775 26.8107 11.1415 26.7187C11.3055 26.6227 11.4335 26.4907 11.5255 26.3227C11.6175 26.1507 11.6635 25.9547 11.6635 25.7347C11.6635 25.5147 11.6175 25.3207 11.5255 25.1527C11.4335 24.9807 11.3055 24.8487 11.1415 24.7567C10.9775 24.6647 10.7955 24.6187 10.5955 24.6187C10.3915 24.6187 10.2075 24.6647 10.0435 24.7567C9.8835 24.8487 9.7555 24.9807 9.6595 25.1527C9.5675 25.3207 9.5215 25.5147 9.5215 25.7347C9.5215 25.9547 9.5675 26.1507 9.6595 26.3227C9.7555 26.4907 9.8835 26.6227 10.0435 26.7187C10.2075 26.8107 10.3915 26.8567 10.5955 26.8567ZM13.8753 24.6787C13.9753 24.4947 14.1233 24.3547 14.3193 24.2587C14.5153 24.1627 14.7533 24.1147 15.0333 24.1147V24.6727C15.0013 24.6687 14.9573 24.6667 14.9013 24.6667C14.5893 24.6667 14.3433 24.7607 14.1633 24.9487C13.9873 25.1327 13.8993 25.3967 13.8993 25.7407V27.3247H13.3233V24.1447H13.8753V24.6787ZM17.076 27.3607C16.76 27.3607 16.476 27.2907 16.224 27.1507C15.972 27.0107 15.774 26.8187 15.63 26.5747C15.49 26.3267 15.42 26.0467 15.42 25.7347C15.42 25.4227 15.49 25.1447 15.63 24.9007C15.774 24.6527 15.972 24.4607 16.224 24.3247C16.476 24.1847 16.76 24.1147 17.076 24.1147C17.392 24.1147 17.674 24.1847 17.922 24.3247C18.174 24.4607 18.37 24.6527 18.51 24.9007C18.654 25.1447 18.726 25.4227 18.726 25.7347C18.726 26.0467 18.654 26.3267 18.51 26.5747C18.37 26.8187 18.174 27.0107 17.922 27.1507C17.674 27.2907 17.392 27.3607 17.076 27.3607ZM17.076 26.8567C17.28 26.8567 17.462 26.8107 17.622 26.7187C17.786 26.6227 17.914 26.4907 18.006 26.3227C18.098 26.1507 18.144 25.9547 18.144 25.7347C18.144 25.5147 18.098 25.3207 18.006 25.1527C17.914 24.9807 17.786 24.8487 17.622 24.7567C17.462 24.6647 17.28 24.6187 17.076 24.6187C16.872 24.6187 16.688 24.6647 16.524 24.7567C16.364 24.8487 16.236 24.9807 16.14 25.1527C16.048 25.3207 16.002 25.5147 16.002 25.7347C16.002 25.9547 16.048 26.1507 16.14 26.3227C16.236 26.4907 16.364 26.6227 16.524 26.7187C16.688 26.8107 16.872 26.8567 17.076 26.8567ZM19.5226 24.1447H20.0986V27.3247H19.5226V24.1447ZM19.8106 23.5327C19.6986 23.5327 19.6046 23.4967 19.5286 23.4247C19.4566 23.3527 19.4206 23.2647 19.4206 23.1607C19.4206 23.0567 19.4566 22.9687 19.5286 22.8967C19.6046 22.8207 19.6986 22.7827 19.8106 22.7827C19.9226 22.7827 20.0146 22.8187 20.0866 22.8907C20.1626 22.9587 20.2006 23.0447 20.2006 23.1487C20.2006 23.2567 20.1626 23.3487 20.0866 23.4247C20.0146 23.4967 19.9226 23.5327 19.8106 23.5327ZM24.1983 22.8727V27.3247H23.6463V26.8207C23.5183 26.9967 23.3563 27.1307 23.1603 27.2227C22.9643 27.3147 22.7483 27.3607 22.5123 27.3607C22.2043 27.3607 21.9283 27.2927 21.6843 27.1567C21.4403 27.0207 21.2483 26.8307 21.1083 26.5867C20.9723 26.3387 20.9043 26.0547 20.9043 25.7347C20.9043 25.4147 20.9723 25.1327 21.1083 24.8887C21.2483 24.6447 21.4403 24.4547 21.6843 24.3187C21.9283 24.1827 22.2043 24.1147 22.5123 24.1147C22.7403 24.1147 22.9503 24.1587 23.1423 24.2467C23.3343 24.3307 23.4943 24.4567 23.6223 24.6247V22.8727H24.1983ZM22.5603 26.8567C22.7603 26.8567 22.9423 26.8107 23.1063 26.7187C23.2703 26.6227 23.3983 26.4907 23.4903 26.3227C23.5823 26.1507 23.6283 25.9547 23.6283 25.7347C23.6283 25.5147 23.5823 25.3207 23.4903 25.1527C23.3983 24.9807 23.2703 24.8487 23.1063 24.7567C22.9423 24.6647 22.7603 24.6187 22.5603 24.6187C22.3563 24.6187 22.1723 24.6647 22.0083 24.7567C21.8483 24.8487 21.7203 24.9807 21.6243 25.1527C21.5323 25.3207 21.4863 25.5147 21.4863 25.7347C21.4863 25.9547 21.5323 26.1507 21.6243 26.3227C21.7203 26.4907 21.8483 26.6227 22.0083 26.7187C22.1723 26.8107 22.3563 26.8567 22.5603 26.8567Z" fill="currentColor"></path>
  </symbol>
  <symbol fill="none" xmlns="http://www.w3.org/2000/svg" viewBox="0 0 30 30" id="ic_card_games">
    <path d="M27.5598 2.85429C27.5598 1.78188 26.6811 0.907227 25.6011 0.907227H12.8083C11.7284 0.907227 10.8497 1.78188 10.8497 2.85429V3.12505L3.58431 5.63725C2.56601 5.98952 2.02048 7.10446 2.37275 8.12228L9.12709 27.7122C9.40588 28.5214 10.1685 29.0322 10.9811 29.0322C11.1942 29.0322 11.4108 28.9975 11.6237 28.9238L21.4247 25.5445H25.5971C26.6771 25.5445 27.556 24.666 27.556 23.5861V2.85429H27.5598ZM25.6011 24.2325H12.8083C12.452 24.2325 12.1657 23.9459 12.1657 23.5898V2.85429C12.1657 2.5058 12.452 2.22322 12.8083 2.22322H25.6011C25.9572 2.22322 26.2438 2.5058 26.2438 2.85429V23.5898C26.2438 23.9421 25.9572 24.2325 25.6011 24.2325ZM11.198 27.6815C10.8651 27.7975 10.4896 27.6156 10.3736 27.2867L3.61928 7.69654C3.5028 7.36364 3.68095 6.99979 4.01408 6.88378L10.8497 4.52255V23.5936C10.8497 24.6736 11.7284 25.5525 12.8083 25.5525H17.3912L11.198 27.6815Z" fill="currentColor"></path>
    <path d="M23.7021 12.9223C23.4346 12.113 22.9585 11.4009 22.3201 10.8705L21.5381 10.2047L20.7873 9.50799L20.0596 8.79187L19.359 8.04504C19.3163 7.99826 19.2584 7.97534 19.1963 7.97534C19.1343 7.97534 19.0765 8.00228 19.0339 8.04504L18.9408 8.14545C18.608 8.49772 18.31 8.81904 17.9927 9.13658C17.3692 9.76339 16.7074 10.3363 16.0842 10.8705C15.4377 11.4087 14.9579 12.1211 14.6945 12.9223C14.3153 14.1801 14.8263 15.5542 15.9334 16.2626C16.2701 16.4639 16.6415 16.5607 17.0134 16.5607C17.4777 16.5607 17.9422 16.4057 18.3332 16.1C18.3757 16.0653 18.4376 16.0613 18.4839 16.0925C18.5307 16.1232 18.5536 16.1775 18.5423 16.2314C18.4067 16.7968 18.1976 17.3888 17.919 17.9927C17.8647 18.1087 17.8765 18.2406 17.9502 18.3566C18.0237 18.4726 18.155 18.5465 18.2829 18.5465H20.1255C20.249 18.5465 20.3693 18.4768 20.4468 18.3566C20.5203 18.2406 20.5319 18.1087 20.4778 17.9927C20.2027 17.3888 19.9936 16.7968 19.8542 16.2314C19.8427 16.1775 19.862 16.1232 19.9124 16.0925C19.9589 16.0613 20.0208 16.0653 20.0633 16.1C20.4506 16.4057 20.9151 16.5607 21.3834 16.5607C21.755 16.5607 22.1302 16.4601 22.4673 16.2626C23.5702 15.5542 24.0772 14.1801 23.7021 12.9223Z" fill="currentColor"></path>
    <path d="M14.447 4.82434C14.5245 4.82434 14.6018 4.8052 14.6715 4.76267C14.8997 4.61949 15.0044 4.3407 14.9269 4.0853C14.8806 3.93811 14.7799 3.79493 14.6521 3.67892L14.3736 3.4195L14.0948 3.14473C14.0638 3.11354 14.0135 3.11354 13.9825 3.14473L13.4212 3.67892C13.3245 3.77532 13.2083 3.91094 13.1504 4.0853C13.0729 4.3407 13.1771 4.61949 13.402 4.76267C13.4755 4.8052 13.5568 4.82859 13.6341 4.82859C13.7191 4.82859 13.8044 4.80142 13.8779 4.75086C13.8507 4.84773 13.8082 4.94081 13.7697 5.02965L13.7581 5.05682C13.7425 5.09155 13.7463 5.1303 13.7656 5.16527C13.785 5.19622 13.8276 5.21535 13.8665 5.21535H14.2146C14.2571 5.21535 14.2843 5.20378 14.3114 5.17283C14.3426 5.1381 14.3348 5.08777 14.3192 5.05304C14.2767 4.95617 14.2379 4.85529 14.2108 4.75086C14.2805 4.7974 14.3617 4.82434 14.447 4.82434Z" fill="currentColor"></path>
    <path d="M6.5794 8.60623C6.76132 8.42809 6.7729 8.14174 6.60255 7.95202C6.46315 7.79726 6.24248 7.75474 6.06056 7.83223C6.09151 7.68905 6.05276 7.52627 5.95211 7.41026C5.82453 7.26307 5.61945 7.20495 5.43351 7.27087C5.25159 7.33655 5.12377 7.51091 5.11999 7.70441C5.11621 7.8594 5.18591 8.00234 5.29813 8.09519C5.10463 8.14953 4.96146 8.31965 4.95366 8.52874C4.94185 8.78438 5.12755 9.00103 5.38342 9.02442H5.42595C5.61544 9.02442 5.77822 8.90842 5.8517 8.73783C5.86328 8.93512 5.7898 9.12885 5.64662 9.26423C5.61945 9.2914 5.61166 9.33393 5.63079 9.36488C5.64662 9.39205 5.67757 9.40741 5.70451 9.40741C5.71231 9.40741 5.72388 9.40741 5.73168 9.40363L6.54467 9.10948C6.5794 9.0979 6.59853 9.05915 6.59475 9.02041C6.59097 8.9819 6.55601 8.95473 6.52128 8.95071C6.32021 8.93512 6.14585 8.8425 6.03363 8.68751C6.10332 8.72224 6.1768 8.74185 6.2543 8.74185C6.37408 8.73783 6.49033 8.69531 6.5794 8.60623Z" fill="currentColor"></path>
    <path d="M24.9528 21.7512C24.8019 21.6623 24.6161 21.6699 24.4768 21.7746C24.5039 21.6815 24.5424 21.5886 24.585 21.4996L24.6008 21.4686C24.6161 21.4336 24.6121 21.3911 24.5928 21.3602C24.5658 21.3176 24.5271 21.3176 24.5039 21.3176H24.1476C24.1247 21.3176 24.0742 21.3176 24.047 21.3602C24.0278 21.3911 24.0278 21.4299 24.0432 21.4686C24.0935 21.5768 24.1323 21.6699 24.1592 21.7705C24.0163 21.6699 23.8341 21.6583 23.6831 21.7474C23.4587 21.8943 23.3543 22.1731 23.4315 22.4248C23.4821 22.5795 23.5787 22.7227 23.7103 22.8311C23.9194 23.0053 24.1051 23.2025 24.2636 23.3731C24.2795 23.3887 24.3024 23.4003 24.322 23.4003C24.3452 23.4003 24.3645 23.3925 24.3801 23.3731C24.5812 23.1525 24.7593 22.9781 24.9375 22.8311C25.0653 22.7227 25.1619 22.5833 25.2122 22.4248C25.2857 22.1769 25.1813 21.8981 24.9528 21.7512Z" fill="currentColor"></path>
  </symbol>
  <symbol fill="none" xmlns="http://www.w3.org/2000/svg" viewBox="0 0 21 20" id="ic_comments">
    <path d="M11.9479 8.58122C11.9479 9.25791 11.3987 9.80711 10.722 9.80711C10.0453 9.80711 9.4961 9.25791 9.4961 8.58122C9.4961 7.90453 10.0453 7.35533 10.722 7.35533C11.3987 7.35533 11.9479 7.90453 11.9479 8.58122ZM14.8083 7.35533C14.1316 7.35533 13.5824 7.90453 13.5824 8.58122C13.5824 9.25791 14.1316 9.80711 14.8083 9.80711C15.485 9.80711 16.0342 9.25791 16.0342 8.58122C16.0342 7.90453 15.485 7.35533 14.8083 7.35533ZM6.63569 7.35533C5.959 7.35533 5.4098 7.90453 5.4098 8.58122C5.4098 9.25791 5.959 9.80711 6.63569 9.80711C7.31238 9.80711 7.86158 9.25791 7.86158 8.58122C7.86158 7.90453 7.31238 7.35533 6.63569 7.35533ZM20.5291 3.26904V13.0761C20.5291 14.879 19.0629 16.3452 17.2601 16.3452H14.9292L11.7844 18.9441C11.4894 19.2072 11.111 19.3396 10.7285 19.3396C10.3395 19.3396 9.94804 19.2023 9.63585 18.9253L6.57195 16.3452H4.1831C2.38022 16.3452 0.914062 14.879 0.914062 13.0761V3.26904C0.91488 1.46616 2.38104 0 4.18392 0H17.2601C19.0629 0 20.5291 1.46616 20.5291 3.26904ZM18.8946 3.26904C18.8946 2.3676 18.1615 1.63452 17.2601 1.63452H4.18392C3.28248 1.63452 2.5494 2.3676 2.5494 3.26904V13.0761C2.5494 13.9776 3.28248 14.7107 4.18392 14.7107H6.87106C7.06312 14.7107 7.25027 14.7785 7.3982 14.9027L10.7065 17.6896L14.1152 14.8978C14.2615 14.7769 14.4454 14.7107 14.6358 14.7107H17.2609C18.1623 14.7107 18.8954 13.9776 18.8954 13.0761L18.8946 3.26904Z" fill="currentColor"></path>
  </symbol>
  <symbol fill="none" xmlns="http://www.w3.org/2000/svg" viewBox="0 0 17 16" id="ic_copy">
    <path d="M13.5026 13.3334H11.8359C11.6591 13.3334 11.4896 13.2632 11.3645 13.1382C11.2395 13.0131 11.1693 12.8436 11.1693 12.6667C11.1693 12.4899 11.2395 12.3204 11.3645 12.1953C11.4896 12.0703 11.6591 12.0001 11.8359 12.0001H13.5026C13.5907 11.999 13.6748 11.9635 13.7371 11.9012C13.7994 11.839 13.8348 11.7548 13.8359 11.6667V2.33341C13.8348 2.24535 13.7994 2.16121 13.7371 2.09894C13.6748 2.03666 13.5907 2.00119 13.5026 2.00008H5.5026C5.41454 2.00119 5.3304 2.03666 5.26813 2.09894C5.20585 2.16121 5.17038 2.24535 5.16927 2.33341V4.00008C5.16927 4.17689 5.09903 4.34646 4.97401 4.47149C4.84898 4.59651 4.67942 4.66675 4.5026 4.66675C4.32579 4.66675 4.15622 4.59651 4.0312 4.47149C3.90618 4.34646 3.83594 4.17689 3.83594 4.00008V2.33341C3.8364 1.89153 4.01215 1.46788 4.32461 1.15542C4.63707 0.842956 5.06072 0.667212 5.5026 0.666748H13.5026C13.9445 0.667212 14.3681 0.842956 14.6806 1.15542C14.9931 1.46788 15.1688 1.89153 15.1693 2.33341V11.6667C15.1688 12.1086 14.9931 12.5323 14.6806 12.8447C14.3681 13.1572 13.9445 13.333 13.5026 13.3334Z" fill="currentColor"></path>
    <path d="M10.8359 15.3335H3.5026C3.06072 15.333 2.63707 15.1573 2.32461 14.8448C2.01215 14.5324 1.8364 14.1087 1.83594 13.6668V5.00016C1.8364 4.55828 2.01215 4.13462 2.32461 3.82216C2.63707 3.5097 3.06072 3.33396 3.5026 3.3335H10.8359C11.2778 3.33396 11.7015 3.5097 12.0139 3.82216C12.3264 4.13462 12.5021 4.55828 12.5026 5.00016V13.6668C12.5021 14.1087 12.3264 14.5324 12.0139 14.8448C11.7015 15.1573 11.2778 15.333 10.8359 15.3335ZM3.5026 4.66683C3.41423 4.66694 3.32952 4.7021 3.26703 4.76459C3.20454 4.82707 3.16939 4.91179 3.16927 5.00016V13.6668C3.16939 13.7552 3.20454 13.8399 3.26703 13.9024C3.32952 13.9649 3.41423 14 3.5026 14.0002H10.8359C10.9243 14 11.009 13.9649 11.0715 13.9024C11.134 13.8399 11.1692 13.7552 11.1693 13.6668V5.00016C11.1692 4.91179 11.134 4.82707 11.0715 4.76459C11.009 4.7021 10.9243 4.66694 10.8359 4.66683H3.5026Z" fill="currentColor"></path>
  </symbol>
  <symbol fill="none" xmlns="http://www.w3.org/2000/svg" viewBox="0 0 21 20" id="ic_date">
    <path d="M16.0279 1.63452H15.2107V0.817259C15.2107 0.600508 15.1246 0.392635 14.9713 0.23937C14.818 0.0861038 14.6102 0 14.3934 0C14.1767 0 13.9688 0.0861038 13.8155 0.23937C13.6622 0.392635 13.5761 0.600508 13.5761 0.817259V1.63452H7.03807V0.817259C7.03807 0.600508 6.95197 0.392635 6.7987 0.23937C6.64544 0.0861038 6.43756 0 6.22081 0C6.00406 0 5.79619 0.0861038 5.64292 0.23937C5.48966 0.392635 5.40355 0.600508 5.40355 0.817259V1.63452H4.58629C3.50294 1.63582 2.46433 2.06675 1.69828 2.8328C0.932233 3.59885 0.501298 4.63746 0.5 5.72081L0.5 15.5279C0.501298 16.6113 0.932233 17.6499 1.69828 18.4159C2.46433 19.182 3.50294 19.6129 4.58629 19.6142H16.0279C17.1113 19.6129 18.1499 19.182 18.9159 18.4159C19.682 17.6499 20.1129 16.6113 20.1142 15.5279V5.72081C20.1129 4.63746 19.682 3.59885 18.9159 2.8328C18.1499 2.06675 17.1113 1.63582 16.0279 1.63452ZM2.13452 5.72081C2.13452 5.07056 2.39283 4.44694 2.85263 3.98714C3.31242 3.52735 3.93604 3.26904 4.58629 3.26904H16.0279C16.6782 3.26904 17.3018 3.52735 17.7616 3.98714C18.2214 4.44694 18.4797 5.07056 18.4797 5.72081V6.53807H2.13452V5.72081ZM16.0279 17.9797H4.58629C3.93604 17.9797 3.31242 17.7214 2.85263 17.2616C2.39283 16.8018 2.13452 16.1782 2.13452 15.5279V8.17259H18.4797V15.5279C18.4797 16.1782 18.2214 16.8018 17.7616 17.2616C17.3018 17.7214 16.6782 17.9797 16.0279 17.9797Z" fill="currentColor"></path>
    <path d="M10.304 13.4847C10.9811 13.4847 11.5299 12.9359 11.5299 12.2588C11.5299 11.5818 10.9811 11.033 10.304 11.033C9.62697 11.033 9.07812 11.5818 9.07812 12.2588C9.07812 12.9359 9.62697 13.4847 10.304 13.4847Z" fill="currentColor"></path>
    <path d="M6.21808 13.4847C6.89512 13.4847 7.44396 12.9359 7.44396 12.2588C7.44396 11.5818 6.89512 11.033 6.21808 11.033C5.54104 11.033 4.99219 11.5818 4.99219 12.2588C4.99219 12.9359 5.54104 13.4847 6.21808 13.4847Z" fill="currentColor"></path>
    <path d="M14.39 13.4847C15.067 13.4847 15.6158 12.9359 15.6158 12.2588C15.6158 11.5818 15.067 11.033 14.39 11.033C13.7129 11.033 13.1641 11.5818 13.1641 12.2588C13.1641 12.9359 13.7129 13.4847 14.39 13.4847Z" fill="currentColor"></path>
  </symbol>
  <symbol fill="none" xmlns="http://www.w3.org/2000/svg" viewBox="0 0 25 25" id="ic_gift">
    <path d="M21.7394 11.7319V22.4017H4.07542V11.7319H2.42969V23.2245C2.42969 23.679 2.79803 24.0474 3.25253 24.0474H22.5623C23.0168 24.0474 23.3851 23.679 23.3851 23.2245V11.7319H21.7394Z" fill="currentColor"></path>
    <path d="M24.0678 5.5603H1.71347C1.25897 5.5603 0.890625 5.92865 0.890625 6.38315V11.7591C0.890625 12.2136 1.25897 12.582 1.71347 12.582H24.0677C24.5222 12.582 24.8906 12.2139 24.8906 11.7591V6.38315C24.8906 5.92865 24.5223 5.5603 24.0678 5.5603ZM23.2449 10.9366H2.53636V7.20632H23.2449V10.9366H23.2449Z" fill="currentColor"></path>
    <path d="M13.6987 6.17503C13.6428 5.96165 12.2853 0.952637 8.32216 0.952637C6.598 0.952637 5.19531 2.35532 5.19531 4.07948C5.19531 5.80364 6.58567 7.20632 8.29473 7.20632H12.9027C13.1575 7.20632 13.3984 7.08811 13.5542 6.88622C13.7099 6.68432 13.7632 6.42159 13.6987 6.17503ZM8.29478 5.56064C7.47963 5.56064 6.84105 4.91001 6.84105 4.07948C6.84105 3.27665 7.51938 2.59832 8.3222 2.59832C10.1278 2.59832 11.209 4.37709 11.7288 5.56059L8.29478 5.56064Z" fill="currentColor"></path>
    <path d="M17.4816 0.952637C13.5185 0.952637 12.161 5.96165 12.105 6.17503C12.0403 6.42159 12.0938 6.68437 12.2496 6.88626C12.4054 7.08815 12.6459 7.20637 12.901 7.20637H17.509C19.2181 7.20637 20.6085 5.80368 20.6085 4.07953C20.6085 2.35532 19.2058 0.952637 17.4816 0.952637ZM17.5091 5.56064H14.0717C14.5877 4.37709 15.6656 2.59837 17.4819 2.59837C18.2848 2.59837 18.9631 3.2767 18.9631 4.07953C18.963 4.91001 18.3245 5.56064 17.5091 5.56064Z" fill="currentColor"></path>
    <path d="M13.7239 6.3833H12.0781V23.2245H13.7239V6.3833Z" fill="currentColor"></path>
  </symbol>
  <symbol fill="none" xmlns="http://www.w3.org/2000/svg" viewBox="0 0 60 25" id="ic_ios">
    <path d="M16.231 11.1676C16.252 9.5316 17.1097 8.02043 18.5036 7.16353C17.6203 5.90205 16.1938 5.13092 14.6546 5.08272C13.0352 4.91275 11.4653 6.05176 10.64 6.05176C9.79885 6.05176 8.52831 5.09962 7.16011 5.12776C5.35993 5.18592 3.72238 6.18461 2.84658 7.75842C0.981553 10.9875 2.37268 15.7332 4.15928 18.3434C5.05313 19.6215 6.0978 21.0492 7.46477 20.9985C8.80241 20.9431 9.30198 20.1456 10.9166 20.1456C12.5163 20.1456 12.9849 20.9985 14.3796 20.9664C15.815 20.9431 16.7193 19.6826 17.5818 18.3923C18.2241 17.4816 18.7183 16.4751 19.0461 15.41C17.3414 14.689 16.233 13.0186 16.231 11.1676Z" fill="currentColor"></path>
    <path d="M13.5996 3.36623C14.3822 2.42673 14.7678 1.21919 14.6744 0C13.4788 0.12559 12.3743 0.69702 11.5811 1.60047C10.7979 2.49182 10.4011 3.65798 10.4782 4.8421C11.6899 4.85457 12.8403 4.31058 13.5996 3.36623Z" fill="currentColor"></path>
    <path d="M26.32 9.4H28.24V20H26.32V9.4ZM27.28 7.36C26.9067 7.36 26.5933 7.24 26.34 7C26.1 6.76 25.98 6.46667 25.98 6.12C25.98 5.77333 26.1 5.48 26.34 5.24C26.5933 4.98667 26.9067 4.86 27.28 4.86C27.6533 4.86 27.96 4.98 28.2 5.22C28.4533 5.44667 28.58 5.73333 28.58 6.08C28.58 6.44 28.4533 6.74667 28.2 7C27.96 7.24 27.6533 7.36 27.28 7.36ZM38.5059 20.16C37.0926 20.16 35.8193 19.8533 34.6859 19.24C33.5526 18.6133 32.6593 17.7533 32.0059 16.66C31.3659 15.5667 31.0459 14.3467 31.0459 13C31.0459 11.6533 31.3659 10.4333 32.0059 9.34C32.6593 8.24667 33.5526 7.39333 34.6859 6.78C35.8193 6.15333 37.0926 5.84 38.5059 5.84C39.9059 5.84 41.1726 6.15333 42.3059 6.78C43.4393 7.39333 44.3259 8.24667 44.9659 9.34C45.6059 10.42 45.9259 11.64 45.9259 13C45.9259 14.36 45.6059 15.5867 44.9659 16.68C44.3259 17.76 43.4393 18.6133 42.3059 19.24C41.1726 19.8533 39.9059 20.16 38.5059 20.16ZM38.5059 18.38C39.5326 18.38 40.4526 18.1467 41.2659 17.68C42.0926 17.2133 42.7393 16.5733 43.2059 15.76C43.6859 14.9333 43.9259 14.0133 43.9259 13C43.9259 11.9867 43.6859 11.0733 43.2059 10.26C42.7393 9.43333 42.0926 8.78667 41.2659 8.32C40.4526 7.85333 39.5326 7.62 38.5059 7.62C37.4793 7.62 36.5459 7.85333 35.7059 8.32C34.8793 8.78667 34.2259 9.43333 33.7459 10.26C33.2793 11.0733 33.0459 11.9867 33.0459 13C33.0459 14.0133 33.2793 14.9333 33.7459 15.76C34.2259 16.5733 34.8793 17.2133 35.7059 17.68C36.5459 18.1467 37.4793 18.38 38.5059 18.38ZM53.0628 20.16C52.0095 20.16 50.9895 20 50.0028 19.68C49.0295 19.3467 48.2628 18.92 47.7028 18.4L48.4428 16.84C48.9761 17.32 49.6561 17.7133 50.4828 18.02C51.3228 18.3133 52.1828 18.46 53.0628 18.46C54.2228 18.46 55.0895 18.2667 55.6628 17.88C56.2361 17.48 56.5228 16.9533 56.5228 16.3C56.5228 15.82 56.3628 15.4333 56.0428 15.14C55.7361 14.8333 55.3495 14.6 54.8828 14.44C54.4295 14.28 53.7828 14.1 52.9428 13.9C51.8895 13.6467 51.0361 13.3933 50.3828 13.14C49.7428 12.8867 49.1895 12.5 48.7228 11.98C48.2695 11.4467 48.0428 10.7333 48.0428 9.84C48.0428 9.09333 48.2361 8.42 48.6228 7.82C49.0228 7.22 49.6228 6.74 50.4228 6.38C51.2228 6.02 52.2161 5.84 53.4028 5.84C54.2295 5.84 55.0428 5.94667 55.8428 6.16C56.6428 6.37333 57.3295 6.68 57.9028 7.08L57.2428 8.68C56.6561 8.30667 56.0295 8.02667 55.3628 7.84C54.6961 7.64 54.0428 7.54 53.4028 7.54C52.2695 7.54 51.4161 7.74667 50.8428 8.16C50.2828 8.57333 50.0028 9.10667 50.0028 9.76C50.0028 10.24 50.1628 10.6333 50.4828 10.94C50.8028 11.2333 51.1961 11.4667 51.6628 11.64C52.1428 11.8 52.7895 11.9733 53.6028 12.16C54.6561 12.4133 55.5028 12.6667 56.1428 12.92C56.7828 13.1733 57.3295 13.56 57.7828 14.08C58.2495 14.6 58.4828 15.3 58.4828 16.18C58.4828 16.9133 58.2828 17.5867 57.8828 18.2C57.4828 18.8 56.8761 19.28 56.0628 19.64C55.2495 19.9867 54.2495 20.16 53.0628 20.16Z" fill="currentColor"></path>
  </symbol>
  <symbol fill="none" xmlns="http://www.w3.org/2000/svg" viewBox="0 0 25 24" id="ic_list">
    <path d="M17.4921 8.19232C17.8583 8.55853 17.8583 9.15216 17.4921 9.51819L11.2028 15.8077C10.8365 16.1737 10.2431 16.1737 9.87689 15.8077L6.88293 12.8135C6.51672 12.4475 6.51672 11.8539 6.88293 11.4879C7.24896 11.1216 7.84259 11.1216 8.20862 11.4879L10.5397 13.819L16.1662 8.19232C16.5324 7.82629 17.126 7.82629 17.4921 8.19232ZM24.1875 12C24.1875 18.633 18.8196 24 12.1875 24C5.5545 24 0.1875 18.6321 0.1875 12C0.1875 5.367 5.55542 0 12.1875 0C18.8205 0 24.1875 5.36792 24.1875 12ZM22.3125 12C22.3125 6.40338 17.7834 1.875 12.1875 1.875C6.59088 1.875 2.0625 6.40411 2.0625 12C2.0625 17.5966 6.59161 22.125 12.1875 22.125C17.7841 22.125 22.3125 17.5959 22.3125 12Z" fill="currentColor"></path>
  </symbol>
  <symbol fill="none" xmlns="http://www.w3.org/2000/svg" viewBox="0 0 26 23" id="ic_machines_games">
    <path d="M16.6501 9H5.23711C4.78691 9 4.42188 9.33579 4.42188 9.75002V16.25C4.42188 16.6642 4.78687 17 5.23711 17H16.6501C17.1003 17 17.4654 16.6643 17.4654 16.25V9.74997C17.4653 9.33579 17.1003 9 16.6501 9ZM8.22622 15.5H6.05229V10.5H8.22622V15.5ZM12.0306 15.5H9.85664V10.5H12.0306V15.5ZM15.8349 15.5H13.661V10.5H15.8349V15.5Z" fill="currentColor"></path>
    <path d="M23.445 0C22.0964 0 20.9993 1.00935 20.9993 2.25C20.9993 3.22777 21.6809 4.06139 22.6297 4.37099V10.5H20.9993V9.25C20.9993 4.14957 16.489 0 10.945 0C5.40103 0 0.890625 4.14957 0.890625 9.25V20.75C0.890625 21.9907 1.98774 23 3.33628 23H18.5537C19.9022 23 20.9993 21.9907 20.9993 20.75V12H23.445C23.8952 12 24.2602 11.6642 24.2602 11.25V4.37099C25.209 4.06139 25.8906 3.22777 25.8906 2.25C25.8906 1.00935 24.7935 0 23.445 0ZM19.3689 20.75C19.3689 21.1635 19.0032 21.5 18.5537 21.5H3.33628C2.88677 21.5 2.52104 21.1635 2.52104 20.75V9.25C2.52104 4.97667 6.3 1.49999 10.945 1.49999C15.5899 1.49999 19.3689 4.97662 19.3689 9.25V20.75ZM23.445 3.00002C22.9955 3.00002 22.6297 2.66355 22.6297 2.25C22.6297 1.83645 22.9955 1.49999 23.445 1.49999C23.8945 1.49999 24.2602 1.83645 24.2602 2.25C24.2602 2.66355 23.8945 3.00002 23.445 3.00002Z" fill="currentColor"></path>
    <path d="M16.3234 6.49941C15.5167 4.40632 13.3545 3 10.943 3C8.53145 3 6.36929 4.40628 5.5627 6.49941C5.41226 6.88983 5.63433 7.31852 6.0587 7.45692C6.48316 7.59542 6.94903 7.39107 7.09947 7.0007C7.67583 5.50493 9.22046 4.50003 10.9431 4.50003C12.6656 4.50003 14.2103 5.50498 14.7867 7.0007C14.9053 7.30823 15.2195 7.50032 15.5551 7.50023C15.6455 7.50023 15.7374 7.48626 15.8275 7.45692C16.2518 7.31847 16.4739 6.88983 16.3234 6.49941Z" fill="currentColor"></path>
    <path d="M10.948 7.50003C11.3983 7.50003 11.7633 7.16424 11.7633 6.75002C11.7633 6.33579 11.3983 6 10.948 6C10.4978 6 10.1328 6.33579 10.1328 6.75002C10.1328 7.16424 10.4978 7.50003 10.948 7.50003Z" fill="currentColor"></path>
    <path d="M15.0221 18.5H6.86992C6.41973 18.5 6.05469 18.8358 6.05469 19.25C6.05469 19.6642 6.41968 20 6.86992 20H15.0221C15.4723 20 15.8373 19.6642 15.8373 19.25C15.8373 18.8358 15.4723 18.5 15.0221 18.5Z" fill="currentColor"></path>
  </symbol>
  <symbol fill="none" xmlns="http://www.w3.org/2000/svg" viewBox="0 0 22 22" id="ic_menu">
    <path d="M21.0434 10.0435H0.956506C0.428238 10.0435 0 10.4717 0 11C0 11.5282 0.428238 11.9565 0.956506 11.9565H21.0434C21.5717 11.9565 22 11.5282 22 11C22 10.4717 21.5717 10.0435 21.0434 10.0435Z" fill="currentColor"></path>
    <path d="M0.956506 5.26091H21.0434C21.5717 5.26091 22 4.83268 22 4.30441C22 3.77614 21.5717 3.3479 21.0434 3.3479H0.956506C0.428238 3.3479 0 3.77614 0 4.30441C0 4.83268 0.428238 5.26091 0.956506 5.26091Z" fill="currentColor"></path>
    <path d="M21.0434 16.7393H0.956506C0.428238 16.7393 0 17.1675 0 17.6958C0 18.2241 0.428238 18.6523 0.956506 18.6523H21.0434C21.5717 18.6523 22 18.2241 22 17.6958C22 17.1675 21.5717 16.7393 21.0434 16.7393Z" fill="currentColor"></path>
  </symbol>
  <symbol fill="none" xmlns="http://www.w3.org/2000/svg" viewBox="0 0 31 31" id="ic_roulette_games">
    <path d="M15.3281 0.5C7.04398 0.5 0.328125 7.21585 0.328125 15.5C0.328125 23.7841 7.04398 30.5 15.3281 30.5C23.6123 30.5 30.3281 23.7841 30.3281 15.5C30.3185 7.21974 23.6084 0.509613 15.3281 0.5ZM27.3639 21.5825L24.7613 20.0806C25.3465 18.8815 25.6958 17.581 25.7901 16.25H28.79C28.6902 18.1072 28.2046 19.9234 27.3639 21.5825ZM14.5781 25.962V28.9619C12.7205 28.8621 10.9041 28.3762 9.2449 27.5353L10.7473 24.9334C11.9466 25.5188 13.2471 25.8679 14.5781 25.962ZM16.0782 25.962C17.4091 25.8679 18.7096 25.5188 19.909 24.9334L21.4113 27.5353C19.7522 28.3762 17.9358 28.8621 16.0782 28.9619V25.962ZM15.3281 24.5001C10.3575 24.5001 6.32803 20.4706 6.32803 15.5C6.32803 10.5294 10.3575 6.49991 15.3281 6.49991C20.2988 6.49991 24.3282 10.5294 24.3282 15.5C24.3227 20.4683 20.2965 24.4946 15.3281 24.5001ZM1.86621 16.25H4.86617C4.96024 17.581 5.30928 18.8815 5.89453 20.0806L3.29237 21.5825C2.45169 19.9234 1.966 18.1072 1.86621 16.25ZM3.29237 9.41747L5.89499 10.9194C5.30951 12.1185 4.96024 13.419 4.86617 14.75H1.86621C1.966 12.8928 2.45169 11.0766 3.29237 9.41747ZM16.0782 5.03804V2.03809C17.9358 2.13788 19.7522 2.62357 21.4113 3.46471L19.909 6.06664C18.7096 5.48116 17.4091 5.13211 16.0782 5.03804ZM14.5781 5.03804C13.2471 5.13211 11.9466 5.48116 10.7473 6.06664L9.2449 3.46471C10.9041 2.62379 12.7205 2.13788 14.5781 2.03809V5.03804ZM25.7901 14.75C25.696 13.419 25.347 12.1185 24.7617 10.9194L27.3641 9.41747C28.2048 11.0766 28.6905 12.8928 28.79 14.75H25.7901ZM26.6163 8.11673L24.0192 9.61591C23.2687 8.51132 22.3161 7.55872 21.2115 6.80821L22.7116 4.21132C24.2666 5.23236 25.5955 6.56148 26.6163 8.11673ZM7.94508 4.21132L9.44472 6.80844C8.34013 7.55894 7.38753 8.51132 6.63725 9.61591L4.0399 8.11673C5.06071 6.56148 6.38983 5.23236 7.94508 4.21132ZM4.0399 22.8833L6.63702 21.3841C7.38753 22.4887 8.34013 23.4413 9.44472 24.1916L7.94508 26.7887C6.38983 25.7676 5.06071 24.4385 4.0399 22.8833ZM22.7112 26.7887L21.2111 24.1916C22.3157 23.4413 23.2683 22.4887 24.0188 21.3841L26.6159 22.8833C25.5953 24.4385 24.2662 25.7676 22.7112 26.7887Z" fill="currentColor"></path>
    <path d="M19.8281 13.9998C19.3014 14.0062 18.818 14.2919 18.5587 14.7499H17.4399C17.2136 14.1145 16.7135 13.6146 16.0781 13.388V12.2695C16.5361 12.0097 16.8217 11.5263 16.8281 10.9999C16.8281 10.1715 16.1566 9.5 15.328 9.5C14.4997 9.5 13.8282 10.1715 13.8282 10.9999C13.8346 11.5263 14.1202 12.0099 14.5782 12.2695V13.388C13.9428 13.6146 13.4427 14.1145 13.2164 14.7499H12.0976C11.838 14.2919 11.3546 14.0062 10.8282 13.9998C9.99989 13.9998 9.32812 14.6716 9.32812 15.4999C9.32812 16.3282 9.99989 17 10.8282 17C11.3546 16.9936 11.838 16.7079 12.0976 16.25H13.2164C13.4427 16.8853 13.9428 17.3852 14.5782 17.6118V18.7303C14.1202 18.9901 13.8346 19.4735 13.8282 20C13.8282 20.8283 14.4997 21.4998 15.328 21.4998C16.1566 21.4998 16.8281 20.8283 16.8281 20C16.8217 19.4735 16.5361 18.9899 16.0781 18.7303V17.6118C16.7135 17.3852 17.2136 16.8853 17.4399 16.25H18.5587C18.8183 16.7079 19.3017 16.9936 19.8281 17C20.6564 17 21.3279 16.3282 21.3279 15.4999C21.3279 14.6716 20.6564 13.9998 19.8281 13.9998ZM15.328 16.25C14.9138 16.25 14.578 15.9142 14.578 15.4999C14.578 15.0856 14.9138 14.7499 15.328 14.7499C15.7423 14.7499 16.0781 15.0856 16.0781 15.4999C16.0776 15.914 15.7421 16.2495 15.328 16.25Z" fill="currentColor"></path>
  </symbol>
  <symbol fill="none" xmlns="http://www.w3.org/2000/svg" viewBox="0 0 36 36" id="ic_theme">
    <path fill-rule="evenodd" clip-rule="evenodd" d="M27.8979 15.297C27.4614 14.97 26.8809 14.9055 26.3844 15.129C25.8864 15.351 25.5489 15.828 25.5024 16.371C25.2669 19.158 24.4344 21.3495 22.8909 22.884C21.3714 24.396 19.1904 25.2465 16.3629 25.506C15.8214 25.5555 15.3489 25.8945 15.1284 26.391C14.9079 26.8875 14.9739 27.465 15.2994 27.9C16.9419 30.0885 19.5579 31.5 22.5024 31.5C27.4689 31.5 31.5024 27.4665 31.5024 22.5C31.5024 19.5555 30.0864 16.9395 27.8979 15.297ZM8.56294 29.5605L29.5614 8.562C30.1479 7.977 30.1479 7.026 29.5614 6.441C28.9764 5.8545 28.0254 5.8545 27.4404 6.441L6.44194 27.4395C5.85694 28.0245 5.85694 28.9755 6.44194 29.5605C7.02694 30.1455 7.97794 30.1455 8.56294 29.5605ZM5.66044 18.3645C5.07544 17.778 5.07544 16.8285 5.66044 16.242C6.24544 15.657 7.19643 15.657 7.78143 16.242C8.36643 16.8285 8.36643 17.778 7.78143 18.3645C7.19643 18.9495 6.24544 18.9495 5.66044 18.3645ZM12.0024 7.5015C9.51844 7.5015 7.50244 9.5175 7.50244 12C7.50244 14.484 9.51844 16.5 12.0024 16.5C14.4849 16.5 16.5009 14.484 16.5009 12C16.5009 9.5175 14.4849 7.5015 12.0024 7.5015ZM6.02344 12C6.02344 12.828 5.35144 13.5 4.52344 13.5C3.69694 13.5 3.02344 12.828 3.02344 12C3.02344 11.172 3.69694 10.5 4.52344 10.5C5.35144 10.5 6.02344 11.172 6.02344 12ZM5.66044 5.63551C6.24544 5.05051 7.19643 5.05051 7.78143 5.63551C8.36643 6.22201 8.36643 7.1715 7.78143 7.758C7.19643 8.343 6.24544 8.343 5.66044 7.758C5.07544 7.1715 5.07544 6.22201 5.66044 5.63551ZM16.2669 7.758C15.6819 7.1715 15.6819 6.22201 16.2669 5.63551C16.8519 5.05051 17.8029 5.05051 18.3879 5.63551C18.9729 6.22201 18.9729 7.1715 18.3879 7.758C17.8029 8.343 16.8519 8.343 16.2669 7.758ZM12.0234 3C12.8514 3 13.5234 3.672 13.5234 4.5C13.5234 5.328 12.8514 6 12.0234 6C11.1969 6 10.5234 5.328 10.5234 4.5C10.5234 3.672 11.1969 3 12.0234 3Z" fill="currentColor"></path>
  </symbol>
  <symbol fill="none" xmlns="http://www.w3.org/2000/svg" viewBox="0 0 20 20" id="ic_user">
    <path d="M18 20V17.6667C18 16.429 17.5184 15.242 16.6611 14.3668C15.8038 13.4917 14.641 13 13.4286 13H6.57143C5.35901 13 4.19625 13.4917 3.33894 14.3668C2.48163 15.242 2 16.429 2 17.6667V20" stroke="currentColor" stroke-width="2" stroke-linecap="round" stroke-linejoin="round"></path>
    <path d="M10 9C12.2091 9 14 7.20914 14 5C14 2.79086 12.2091 1 10 1C7.79086 1 6 2.79086 6 5C6 7.20914 7.79086 9 10 9Z" stroke="currentColor" stroke-width="2" stroke-linecap="round" stroke-linejoin="round"></path>
  </symbol>
  <symbol fill="none" xmlns="http://www.w3.org/2000/svg" viewBox="0 0 21 20" id="ic_views">
    <path d="M19.9439 7.69786C18.6764 5.63347 15.7931 2.16992 10.7326 2.16992C5.67215 2.16992 2.78886 5.63347 1.52129 7.69786C1.12944 8.33165 0.921875 9.06206 0.921875 9.80721C0.921875 10.5523 1.12944 11.2828 1.52129 11.9166C2.78886 13.9809 5.67215 17.4445 10.7326 17.4445C15.7931 17.4445 18.6764 13.9809 19.9439 11.9166C20.3358 11.2828 20.5434 10.5523 20.5434 9.80721C20.5434 9.06206 20.3358 8.33165 19.9439 7.69786ZM18.5505 11.0609C17.4619 12.8311 14.9979 15.81 10.7326 15.81C6.46734 15.81 4.00331 12.8311 2.91472 11.0609C2.68191 10.6842 2.5586 10.2501 2.5586 9.80721C2.5586 9.36436 2.68191 8.93025 2.91472 8.55353C4.00331 6.78335 6.46734 3.80444 10.7326 3.80444C14.9979 3.80444 17.4619 6.78008 18.5505 8.55353C18.7833 8.93025 18.9066 9.36436 18.9066 9.80721C18.9066 10.2501 18.7833 10.6842 18.5505 11.0609Z" fill="currentColor"></path>
    <path d="M10.7347 5.7207C9.92654 5.7207 9.1365 5.96036 8.46451 6.40937C7.79252 6.85838 7.26877 7.49657 6.95949 8.24324C6.65021 8.98991 6.56929 9.81153 6.72696 10.6042C6.88463 11.3969 7.27381 12.125 7.84529 12.6964C8.41677 13.2679 9.14487 13.6571 9.93754 13.8148C10.7302 13.9724 11.5518 13.8915 12.2985 13.5822C13.0452 13.273 13.6834 12.7492 14.1324 12.0772C14.5814 11.4052 14.821 10.6152 14.821 9.807C14.8197 8.72364 14.3888 7.68503 13.6227 6.91898C12.8567 6.15294 11.8181 5.722 10.7347 5.7207ZM10.7347 12.2588C10.2498 12.2588 9.77579 12.115 9.3726 11.8456C8.96941 11.5762 8.65516 11.1933 8.46959 10.7453C8.28402 10.2972 8.23546 9.80428 8.33007 9.32868C8.42467 8.85308 8.65818 8.41622 9.00107 8.07333C9.34395 7.73044 9.78082 7.49693 10.2564 7.40233C10.732 7.30773 11.225 7.35628 11.673 7.54185C12.121 7.72742 12.5039 8.04167 12.7733 8.44486C13.0427 8.84806 13.1865 9.32208 13.1865 9.807C13.1865 10.4572 12.9282 11.0809 12.4684 11.5407C12.0086 12.0005 11.385 12.2588 10.7347 12.2588Z" fill="currentColor"></path>
  </symbol>
</svg>